<svg version="1.1" xmlns="http://www.w3.org/2000/svg" xmlns:xlink="http://www.w3.org/1999/xlink" width="897" height="657"><defs><clipPath id="uMaaUQdpPtXs"><path fill="none" stroke="none" d=" M 0 0 L 897 0 L 897 657 L 0 657 L 0 0 Z"/></clipPath></defs><g transform="scale(1,1)" clip-path="url(#uMaaUQdpPtXs)"><g><rect fill="rgb(255,255,255)" stroke="none" x="0" y="0" width="897" height="657" fill-opacity="1"/><path fill="none" stroke="rgb(192,192,192)" paint-order="fill stroke markers" d=" M 0.5 0.5 L 0.5 657.5 M 0.5 0.5 L 0.5 657.5 M 75.5 0.5 L 75.5 657.5 M 149.5 0.5 L 149.5 657.5 M 224.5 0.5 L 224.5 657.5 M 299.5 0.5 L 299.5 657.5 M 373.5 0.5 L 373.5 657.5 M 522.5 0.5 L 522.5 657.5 M 597.5 0.5 L 597.5 657.5 M 672.5 0.5 L 672.5 657.5 M 746.5 0.5 L 746.5 657.5 M 821.5 0.5 L 821.5 657.5 M 896.5 0.5 L 896.5 657.5" stroke-opacity="1" stroke-linecap="round" stroke-linejoin="round" stroke-miterlimit="10"/><path fill="none" stroke="rgb(192,192,192)" paint-order="fill stroke markers" d="" stroke-opacity="0.23529411764705882" stroke-linecap="round" stroke-linejoin="round" stroke-miterlimit="10"/><path fill="none" stroke="rgb(192,192,192)" paint-order="fill stroke markers" d=" M 0.5 23.5 L 897.5 23.5 M 0.5 23.5 L 897.5 23.5 M 0.5 68.5 L 897.5 68.5 M 0.5 113.5 L 897.5 113.5 M 0.5 158.5 L 897.5 158.5 M 0.5 203.5 L 897.5 203.5 M 0.5 247.5 L 897.5 247.5 M 0.5 292.5 L 897.5 292.5 M 0.5 382.5 L 897.5 382.5 M 0.5 426.5 L 897.5 426.5 M 0.5 471.5 L 897.5 471.5 M 0.5 516.5 L 897.5 516.5 M 0.5 561.5 L 897.5 561.5 M 0.5 606.5 L 897.5 606.5 M 0.5 650.5 L 897.5 650.5" stroke-opacity="1" stroke-linecap="round" stroke-linejoin="round" stroke-miterlimit="10"/><path fill="none" stroke="rgb(192,192,192)" paint-order="fill stroke markers" d="" stroke-opacity="0.23529411764705882" stroke-linecap="round" stroke-linejoin="round" stroke-miterlimit="10"/><path fill="none" stroke="rgb(37,37,37)" paint-order="fill stroke markers" d=" M 448.5 2.5 L 448.5 657.5" stroke-opacity="1" stroke-miterlimit="10"/><path fill="none" stroke="rgb(37,37,37)" paint-order="fill stroke markers" d=" M 448.5 1.5 L 444.5 5.5" stroke-opacity="1" stroke-miterlimit="10"/><path fill="none" stroke="rgb(37,37,37)" paint-order="fill stroke markers" d=" M 448.5 1.5 L 452.5 5.5" stroke-opacity="1" stroke-miterlimit="10"/><path fill="none" stroke="rgb(37,37,37)" paint-order="fill stroke markers" d=" M 0.5 337.5 L 895.5 337.5" stroke-opacity="1" stroke-miterlimit="10"/><path fill="none" stroke="rgb(37,37,37)" paint-order="fill stroke markers" d=" M 896.5 337.5 L 892.5 333.5" stroke-opacity="1" stroke-miterlimit="10"/><path fill="none" stroke="rgb(37,37,37)" paint-order="fill stroke markers" d=" M 896.5 337.5 L 892.5 341.5" stroke-opacity="1" stroke-miterlimit="10"/><text fill="rgb(37,37,37)" stroke="none" font-family="geogebra-sans-serif, sans-serif" font-size="12px" font-style="normal" font-weight="normal" text-decoration="normal" x="70" y="353" text-anchor="start" dominant-baseline="alphabetic" fill-opacity="1">–5</text><text fill="none" stroke="rgb(255,255,255)" font-family="geogebra-sans-serif, sans-serif" font-size="12px" font-style="normal" font-weight="normal" text-decoration="normal" x="70" y="353" text-anchor="start" dominant-baseline="alphabetic" stroke-opacity="1" stroke-linejoin="bevel" stroke-miterlimit="10" stroke-width="3">–5</text><text fill="rgb(37,37,37)" stroke="none" font-family="geogebra-sans-serif, sans-serif" font-size="12px" font-style="normal" font-weight="normal" text-decoration="normal" x="70" y="353" text-anchor="start" dominant-baseline="alphabetic" fill-opacity="1">–5</text><text fill="rgb(37,37,37)" stroke="none" font-family="geogebra-sans-serif, sans-serif" font-size="12px" font-style="normal" font-weight="normal" text-decoration="normal" x="144" y="353" text-anchor="start" dominant-baseline="alphabetic" fill-opacity="1">–4</text><text fill="none" stroke="rgb(255,255,255)" font-family="geogebra-sans-serif, sans-serif" font-size="12px" font-style="normal" font-weight="normal" text-decoration="normal" x="144" y="353" text-anchor="start" dominant-baseline="alphabetic" stroke-opacity="1" stroke-linejoin="bevel" stroke-miterlimit="10" stroke-width="3">–4</text><text fill="rgb(37,37,37)" stroke="none" font-family="geogebra-sans-serif, sans-serif" font-size="12px" font-style="normal" font-weight="normal" text-decoration="normal" x="144" y="353" text-anchor="start" dominant-baseline="alphabetic" fill-opacity="1">–4</text><text fill="rgb(37,37,37)" stroke="none" font-family="geogebra-sans-serif, sans-serif" font-size="12px" font-style="normal" font-weight="normal" text-decoration="normal" x="219" y="353" text-anchor="start" dominant-baseline="alphabetic" fill-opacity="1">–3</text><text fill="none" stroke="rgb(255,255,255)" font-family="geogebra-sans-serif, sans-serif" font-size="12px" font-style="normal" font-weight="normal" text-decoration="normal" x="219" y="353" text-anchor="start" dominant-baseline="alphabetic" stroke-opacity="1" stroke-linejoin="bevel" stroke-miterlimit="10" stroke-width="3">–3</text><text fill="rgb(37,37,37)" stroke="none" font-family="geogebra-sans-serif, sans-serif" font-size="12px" font-style="normal" font-weight="normal" text-decoration="normal" x="219" y="353" text-anchor="start" dominant-baseline="alphabetic" fill-opacity="1">–3</text><text fill="rgb(37,37,37)" stroke="none" font-family="geogebra-sans-serif, sans-serif" font-size="12px" font-style="normal" font-weight="normal" text-decoration="normal" x="294" y="353" text-anchor="start" dominant-baseline="alphabetic" fill-opacity="1">–2</text><text fill="none" stroke="rgb(255,255,255)" font-family="geogebra-sans-serif, sans-serif" font-size="12px" font-style="normal" font-weight="normal" text-decoration="normal" x="294" y="353" text-anchor="start" dominant-baseline="alphabetic" stroke-opacity="1" stroke-linejoin="bevel" stroke-miterlimit="10" stroke-width="3">–2</text><text fill="rgb(37,37,37)" stroke="none" font-family="geogebra-sans-serif, sans-serif" font-size="12px" font-style="normal" font-weight="normal" text-decoration="normal" x="294" y="353" text-anchor="start" dominant-baseline="alphabetic" fill-opacity="1">–2</text><text fill="rgb(37,37,37)" stroke="none" font-family="geogebra-sans-serif, sans-serif" font-size="12px" font-style="normal" font-weight="normal" text-decoration="normal" x="368" y="353" text-anchor="start" dominant-baseline="alphabetic" fill-opacity="1">–1</text><text fill="none" stroke="rgb(255,255,255)" font-family="geogebra-sans-serif, sans-serif" font-size="12px" font-style="normal" font-weight="normal" text-decoration="normal" x="368" y="353" text-anchor="start" dominant-baseline="alphabetic" stroke-opacity="1" stroke-linejoin="bevel" stroke-miterlimit="10" stroke-width="3">–1</text><text fill="rgb(37,37,37)" stroke="none" font-family="geogebra-sans-serif, sans-serif" font-size="12px" font-style="normal" font-weight="normal" text-decoration="normal" x="368" y="353" text-anchor="start" dominant-baseline="alphabetic" fill-opacity="1">–1</text><text fill="rgb(37,37,37)" stroke="none" font-family="geogebra-sans-serif, sans-serif" font-size="12px" font-style="normal" font-weight="normal" text-decoration="normal" x="520" y="353" text-anchor="start" dominant-baseline="alphabetic" fill-opacity="1">1</text><text fill="none" stroke="rgb(255,255,255)" font-family="geogebra-sans-serif, sans-serif" font-size="12px" font-style="normal" font-weight="normal" text-decoration="normal" x="520" y="353" text-anchor="start" dominant-baseline="alphabetic" stroke-opacity="1" stroke-linejoin="bevel" stroke-miterlimit="10" stroke-width="3">1</text><text fill="rgb(37,37,37)" stroke="none" font-family="geogebra-sans-serif, sans-serif" font-size="12px" font-style="normal" font-weight="normal" text-decoration="normal" x="520" y="353" text-anchor="start" dominant-baseline="alphabetic" fill-opacity="1">1</text><text fill="rgb(37,37,37)" stroke="none" font-family="geogebra-sans-serif, sans-serif" font-size="12px" font-style="normal" font-weight="normal" text-decoration="normal" x="595" y="353" text-anchor="start" dominant-baseline="alphabetic" fill-opacity="1">2</text><text fill="none" stroke="rgb(255,255,255)" font-family="geogebra-sans-serif, sans-serif" font-size="12px" font-style="normal" font-weight="normal" text-decoration="normal" x="595" y="353" text-anchor="start" dominant-baseline="alphabetic" stroke-opacity="1" stroke-linejoin="bevel" stroke-miterlimit="10" stroke-width="3">2</text><text fill="rgb(37,37,37)" stroke="none" font-family="geogebra-sans-serif, sans-serif" font-size="12px" font-style="normal" font-weight="normal" text-decoration="normal" x="595" y="353" text-anchor="start" dominant-baseline="alphabetic" fill-opacity="1">2</text><text fill="rgb(37,37,37)" stroke="none" font-family="geogebra-sans-serif, sans-serif" font-size="12px" font-style="normal" font-weight="normal" text-decoration="normal" x="670" y="353" text-anchor="start" dominant-baseline="alphabetic" fill-opacity="1">3</text><text fill="none" stroke="rgb(255,255,255)" font-family="geogebra-sans-serif, sans-serif" font-size="12px" font-style="normal" font-weight="normal" text-decoration="normal" x="670" y="353" text-anchor="start" dominant-baseline="alphabetic" stroke-opacity="1" stroke-linejoin="bevel" stroke-miterlimit="10" stroke-width="3">3</text><text fill="rgb(37,37,37)" stroke="none" font-family="geogebra-sans-serif, sans-serif" font-size="12px" font-style="normal" font-weight="normal" text-decoration="normal" x="670" y="353" text-anchor="start" dominant-baseline="alphabetic" fill-opacity="1">3</text><text fill="rgb(37,37,37)" stroke="none" font-family="geogebra-sans-serif, sans-serif" font-size="12px" font-style="normal" font-weight="normal" text-decoration="normal" x="744" y="353" text-anchor="start" dominant-baseline="alphabetic" fill-opacity="1">4</text><text fill="none" stroke="rgb(255,255,255)" font-family="geogebra-sans-serif, sans-serif" font-size="12px" font-style="normal" font-weight="normal" text-decoration="normal" x="744" y="353" text-anchor="start" dominant-baseline="alphabetic" stroke-opacity="1" stroke-linejoin="bevel" stroke-miterlimit="10" stroke-width="3">4</text><text fill="rgb(37,37,37)" stroke="none" font-family="geogebra-sans-serif, sans-serif" font-size="12px" font-style="normal" font-weight="normal" text-decoration="normal" x="744" y="353" text-anchor="start" dominant-baseline="alphabetic" fill-opacity="1">4</text><text fill="rgb(37,37,37)" stroke="none" font-family="geogebra-sans-serif, sans-serif" font-size="12px" font-style="normal" font-weight="normal" text-decoration="normal" x="819" y="353" text-anchor="start" dominant-baseline="alphabetic" fill-opacity="1">5</text><text fill="none" stroke="rgb(255,255,255)" font-family="geogebra-sans-serif, sans-serif" font-size="12px" font-style="normal" font-weight="normal" text-decoration="normal" x="819" y="353" text-anchor="start" dominant-baseline="alphabetic" stroke-opacity="1" stroke-linejoin="bevel" stroke-miterlimit="10" stroke-width="3">5</text><text fill="rgb(37,37,37)" stroke="none" font-family="geogebra-sans-serif, sans-serif" font-size="12px" font-style="normal" font-weight="normal" text-decoration="normal" x="819" y="353" text-anchor="start" dominant-baseline="alphabetic" fill-opacity="1">5</text><text fill="rgb(37,37,37)" stroke="none" font-family="geogebra-sans-serif, sans-serif" font-size="12px" font-style="normal" font-weight="normal" text-decoration="normal" x="418" y="611" text-anchor="start" dominant-baseline="alphabetic" fill-opacity="1">–1.2</text><text fill="none" stroke="rgb(255,255,255)" font-family="geogebra-sans-serif, sans-serif" font-size="12px" font-style="normal" font-weight="normal" text-decoration="normal" x="418" y="611" text-anchor="start" dominant-baseline="alphabetic" stroke-opacity="1" stroke-linejoin="bevel" stroke-miterlimit="10" stroke-width="3">–1.2</text><text fill="rgb(37,37,37)" stroke="none" font-family="geogebra-sans-serif, sans-serif" font-size="12px" font-style="normal" font-weight="normal" text-decoration="normal" x="418" y="611" text-anchor="start" dominant-baseline="alphabetic" fill-opacity="1">–1.2</text><text fill="rgb(37,37,37)" stroke="none" font-family="geogebra-sans-serif, sans-serif" font-size="12px" font-style="normal" font-weight="normal" text-decoration="normal" x="428" y="566" text-anchor="start" dominant-baseline="alphabetic" fill-opacity="1">–1</text><text fill="none" stroke="rgb(255,255,255)" font-family="geogebra-sans-serif, sans-serif" font-size="12px" font-style="normal" font-weight="normal" text-decoration="normal" x="428" y="566" text-anchor="start" dominant-baseline="alphabetic" stroke-opacity="1" stroke-linejoin="bevel" stroke-miterlimit="10" stroke-width="3">–1</text><text fill="rgb(37,37,37)" stroke="none" font-family="geogebra-sans-serif, sans-serif" font-size="12px" font-style="normal" font-weight="normal" text-decoration="normal" x="428" y="566" text-anchor="start" dominant-baseline="alphabetic" fill-opacity="1">–1</text><text fill="rgb(37,37,37)" stroke="none" font-family="geogebra-sans-serif, sans-serif" font-size="12px" font-style="normal" font-weight="normal" text-decoration="normal" x="418" y="521" text-anchor="start" dominant-baseline="alphabetic" fill-opacity="1">–0.8</text><text fill="none" stroke="rgb(255,255,255)" font-family="geogebra-sans-serif, sans-serif" font-size="12px" font-style="normal" font-weight="normal" text-decoration="normal" x="418" y="521" text-anchor="start" dominant-baseline="alphabetic" stroke-opacity="1" stroke-linejoin="bevel" stroke-miterlimit="10" stroke-width="3">–0.8</text><text fill="rgb(37,37,37)" stroke="none" font-family="geogebra-sans-serif, sans-serif" font-size="12px" font-style="normal" font-weight="normal" text-decoration="normal" x="418" y="521" text-anchor="start" dominant-baseline="alphabetic" fill-opacity="1">–0.8</text><text fill="rgb(37,37,37)" stroke="none" font-family="geogebra-sans-serif, sans-serif" font-size="12px" font-style="normal" font-weight="normal" text-decoration="normal" x="418" y="476" text-anchor="start" dominant-baseline="alphabetic" fill-opacity="1">–0.6</text><text fill="none" stroke="rgb(255,255,255)" font-family="geogebra-sans-serif, sans-serif" font-size="12px" font-style="normal" font-weight="normal" text-decoration="normal" x="418" y="476" text-anchor="start" dominant-baseline="alphabetic" stroke-opacity="1" stroke-linejoin="bevel" stroke-miterlimit="10" stroke-width="3">–0.6</text><text fill="rgb(37,37,37)" stroke="none" font-family="geogebra-sans-serif, sans-serif" font-size="12px" font-style="normal" font-weight="normal" text-decoration="normal" x="418" y="476" text-anchor="start" dominant-baseline="alphabetic" fill-opacity="1">–0.6</text><text fill="rgb(37,37,37)" stroke="none" font-family="geogebra-sans-serif, sans-serif" font-size="12px" font-style="normal" font-weight="normal" text-decoration="normal" x="418" y="431" text-anchor="start" dominant-baseline="alphabetic" fill-opacity="1">–0.4</text><text fill="none" stroke="rgb(255,255,255)" font-family="geogebra-sans-serif, sans-serif" font-size="12px" font-style="normal" font-weight="normal" text-decoration="normal" x="418" y="431" text-anchor="start" dominant-baseline="alphabetic" stroke-opacity="1" stroke-linejoin="bevel" stroke-miterlimit="10" stroke-width="3">–0.4</text><text fill="rgb(37,37,37)" stroke="none" font-family="geogebra-sans-serif, sans-serif" font-size="12px" font-style="normal" font-weight="normal" text-decoration="normal" x="418" y="431" text-anchor="start" dominant-baseline="alphabetic" fill-opacity="1">–0.4</text><text fill="rgb(37,37,37)" stroke="none" font-family="geogebra-sans-serif, sans-serif" font-size="12px" font-style="normal" font-weight="normal" text-decoration="normal" x="418" y="387" text-anchor="start" dominant-baseline="alphabetic" fill-opacity="1">–0.2</text><text fill="none" stroke="rgb(255,255,255)" font-family="geogebra-sans-serif, sans-serif" font-size="12px" font-style="normal" font-weight="normal" text-decoration="normal" x="418" y="387" text-anchor="start" dominant-baseline="alphabetic" stroke-opacity="1" stroke-linejoin="bevel" stroke-miterlimit="10" stroke-width="3">–0.2</text><text fill="rgb(37,37,37)" stroke="none" font-family="geogebra-sans-serif, sans-serif" font-size="12px" font-style="normal" font-weight="normal" text-decoration="normal" x="418" y="387" text-anchor="start" dominant-baseline="alphabetic" fill-opacity="1">–0.2</text><text fill="rgb(37,37,37)" stroke="none" font-family="geogebra-sans-serif, sans-serif" font-size="12px" font-style="normal" font-weight="normal" text-decoration="normal" x="424" y="297" text-anchor="start" dominant-baseline="alphabetic" fill-opacity="1">0.2</text><text fill="none" stroke="rgb(255,255,255)" font-family="geogebra-sans-serif, sans-serif" font-size="12px" font-style="normal" font-weight="normal" text-decoration="normal" x="424" y="297" text-anchor="start" dominant-baseline="alphabetic" stroke-opacity="1" stroke-linejoin="bevel" stroke-miterlimit="10" stroke-width="3">0.2</text><text fill="rgb(37,37,37)" stroke="none" font-family="geogebra-sans-serif, sans-serif" font-size="12px" font-style="normal" font-weight="normal" text-decoration="normal" x="424" y="297" text-anchor="start" dominant-baseline="alphabetic" fill-opacity="1">0.2</text><text fill="rgb(37,37,37)" stroke="none" font-family="geogebra-sans-serif, sans-serif" font-size="12px" font-style="normal" font-weight="normal" text-decoration="normal" x="424" y="252" text-anchor="start" dominant-baseline="alphabetic" fill-opacity="1">0.4</text><text fill="none" stroke="rgb(255,255,255)" font-family="geogebra-sans-serif, sans-serif" font-size="12px" font-style="normal" font-weight="normal" text-decoration="normal" x="424" y="252" text-anchor="start" dominant-baseline="alphabetic" stroke-opacity="1" stroke-linejoin="bevel" stroke-miterlimit="10" stroke-width="3">0.4</text><text fill="rgb(37,37,37)" stroke="none" font-family="geogebra-sans-serif, sans-serif" font-size="12px" font-style="normal" font-weight="normal" text-decoration="normal" x="424" y="252" text-anchor="start" dominant-baseline="alphabetic" fill-opacity="1">0.4</text><text fill="rgb(37,37,37)" stroke="none" font-family="geogebra-sans-serif, sans-serif" font-size="12px" font-style="normal" font-weight="normal" text-decoration="normal" x="424" y="208" text-anchor="start" dominant-baseline="alphabetic" fill-opacity="1">0.6</text><text fill="none" stroke="rgb(255,255,255)" font-family="geogebra-sans-serif, sans-serif" font-size="12px" font-style="normal" font-weight="normal" text-decoration="normal" x="424" y="208" text-anchor="start" dominant-baseline="alphabetic" stroke-opacity="1" stroke-linejoin="bevel" stroke-miterlimit="10" stroke-width="3">0.6</text><text fill="rgb(37,37,37)" stroke="none" font-family="geogebra-sans-serif, sans-serif" font-size="12px" font-style="normal" font-weight="normal" text-decoration="normal" x="424" y="208" text-anchor="start" dominant-baseline="alphabetic" fill-opacity="1">0.6</text><text fill="rgb(37,37,37)" stroke="none" font-family="geogebra-sans-serif, sans-serif" font-size="12px" font-style="normal" font-weight="normal" text-decoration="normal" x="424" y="163" text-anchor="start" dominant-baseline="alphabetic" fill-opacity="1">0.8</text><text fill="none" stroke="rgb(255,255,255)" font-family="geogebra-sans-serif, sans-serif" font-size="12px" font-style="normal" font-weight="normal" text-decoration="normal" x="424" y="163" text-anchor="start" dominant-baseline="alphabetic" stroke-opacity="1" stroke-linejoin="bevel" stroke-miterlimit="10" stroke-width="3">0.8</text><text fill="rgb(37,37,37)" stroke="none" font-family="geogebra-sans-serif, sans-serif" font-size="12px" font-style="normal" font-weight="normal" text-decoration="normal" x="424" y="163" text-anchor="start" dominant-baseline="alphabetic" fill-opacity="1">0.8</text><text fill="rgb(37,37,37)" stroke="none" font-family="geogebra-sans-serif, sans-serif" font-size="12px" font-style="normal" font-weight="normal" text-decoration="normal" x="434" y="118" text-anchor="start" dominant-baseline="alphabetic" fill-opacity="1">1</text><text fill="none" stroke="rgb(255,255,255)" font-family="geogebra-sans-serif, sans-serif" font-size="12px" font-style="normal" font-weight="normal" text-decoration="normal" x="434" y="118" text-anchor="start" dominant-baseline="alphabetic" stroke-opacity="1" stroke-linejoin="bevel" stroke-miterlimit="10" stroke-width="3">1</text><text fill="rgb(37,37,37)" stroke="none" font-family="geogebra-sans-serif, sans-serif" font-size="12px" font-style="normal" font-weight="normal" text-decoration="normal" x="434" y="118" text-anchor="start" dominant-baseline="alphabetic" fill-opacity="1">1</text><text fill="rgb(37,37,37)" stroke="none" font-family="geogebra-sans-serif, sans-serif" font-size="12px" font-style="normal" font-weight="normal" text-decoration="normal" x="424" y="73" text-anchor="start" dominant-baseline="alphabetic" fill-opacity="1">1.2</text><text fill="none" stroke="rgb(255,255,255)" font-family="geogebra-sans-serif, sans-serif" font-size="12px" font-style="normal" font-weight="normal" text-decoration="normal" x="424" y="73" text-anchor="start" dominant-baseline="alphabetic" stroke-opacity="1" stroke-linejoin="bevel" stroke-miterlimit="10" stroke-width="3">1.2</text><text fill="rgb(37,37,37)" stroke="none" font-family="geogebra-sans-serif, sans-serif" font-size="12px" font-style="normal" font-weight="normal" text-decoration="normal" x="424" y="73" text-anchor="start" dominant-baseline="alphabetic" fill-opacity="1">1.2</text><text fill="rgb(37,37,37)" stroke="none" font-family="geogebra-sans-serif, sans-serif" font-size="12px" font-style="normal" font-weight="normal" text-decoration="normal" x="424" y="28" text-anchor="start" dominant-baseline="alphabetic" fill-opacity="1">1.4</text><text fill="none" stroke="rgb(255,255,255)" font-family="geogebra-sans-serif, sans-serif" font-size="12px" font-style="normal" font-weight="normal" text-decoration="normal" x="424" y="28" text-anchor="start" dominant-baseline="alphabetic" stroke-opacity="1" stroke-linejoin="bevel" stroke-miterlimit="10" stroke-width="3">1.4</text><text fill="rgb(37,37,37)" stroke="none" font-family="geogebra-sans-serif, sans-serif" font-size="12px" font-style="normal" font-weight="normal" text-decoration="normal" x="424" y="28" text-anchor="start" dominant-baseline="alphabetic" fill-opacity="1">1.4</text><text fill="rgb(37,37,37)" stroke="none" font-family="geogebra-sans-serif, sans-serif" font-size="12px" font-style="normal" font-weight="normal" text-decoration="normal" x="434" y="353" text-anchor="start" dominant-baseline="alphabetic" fill-opacity="1">0</text><text fill="none" stroke="rgb(255,255,255)" font-family="geogebra-sans-serif, sans-serif" font-size="12px" font-style="normal" font-weight="normal" text-decoration="normal" x="434" y="353" text-anchor="start" dominant-baseline="alphabetic" stroke-opacity="1" stroke-linejoin="bevel" stroke-miterlimit="10" stroke-width="3">0</text><text fill="rgb(37,37,37)" stroke="none" font-family="geogebra-sans-serif, sans-serif" font-size="12px" font-style="normal" font-weight="normal" text-decoration="normal" x="434" y="353" text-anchor="start" dominant-baseline="alphabetic" fill-opacity="1">0</text><path fill="none" stroke="rgb(255,0,51)" paint-order="fill stroke markers" d=" M 0 337.41454288439303 L 1.751366772426195 337.41454288439303 L 3.50273354485239 337.41454288439303 L 5.254100317278585 337.41454288439303 L 7.00546708970478 337.41454288439303 L 8.756833862130975 337.41454288439303 L 10.508200634557113 337.41454288439303 L 12.259567406983308 337.41454288439303 L 14.010934179409503 337.41454288439303 L 15.762300951835698 337.41454288439303 L 17.513667724261893 337.41454288439303 L 19.265034496688145 337.41454288439303 L 21.01640126911434 337.41454288439303 L 22.767768041540535 337.41454288439303 L 24.51913481396673 337.41454288439303 L 26.270501586392925 337.41454288439303 L 28.021868358819063 337.41454288439303 L 29.773235131245258 337.41454288439303 L 31.524601903671453 337.41454288439303 L 33.27596867609765 337.41454288439303 L 35.02733544852384 337.41454288439303 L 36.77870222095004 337.41454288439303 L 38.53006899337623 337.41454288439303 L 40.28143576580243 337.41454288439303 L 42.03280253822862 337.41454288439303 L 43.78416931065482 337.41454288439303 L 45.53553608308101 337.41454288439303 L 47.28690285550715 337.41454288439303 L 49.038269627933346 337.41454288439303 L 50.78963640035954 337.41454288439303 L 52.54100317278579 337.41454288439303 L 54.29236994521199 337.41454288439303 L 56.04373671763818 337.41454288439303 L 57.79510349006438 337.41454288439303 L 59.54647026249057 337.41454288439303 L 61.29783703491677 337.41454288439303 L 63.04920380734296 337.41454288439303 L 64.80057057976916 337.41454288439303 L 66.5519373521953 337.41454288439303 L 68.30330412462149 337.41454288439303 L 70.05467089704769 337.41454288439303 L 71.80603766947388 337.41454288439303 L 73.55740444190008 337.41454288439303 L 75.30877121432627 337.41454288439303 L 77.06013798675247 337.41454288439303 L 78.81150475917866 337.41454288439303 L 80.56287153160491 337.41454288439303 L 82.314238304031 337.41454288439303 L 84.0656050764573 337.41454288439303 L 85.81697184888344 337.41454288439303 L 87.56833862130964 337.41454288439303 L 89.31970539373583 337.41454288439303 L 91.07107216616203 337.41454288439303 L 92.82243893858822 337.41454288439303 L 94.57380571101442 337.41454288439303 L 96.32517248344061 337.41454288439303 L 98.0765392558668 337.41454288439303 L 99.827906028293 337.41454288439303 L 101.57927280071914 337.41454288439303 L 103.33063957314539 337.41454288439303 L 105.08200634557153 337.41454288439303 L 106.83337311799772 337.41454288439303 L 108.58473989042392 337.41454288439303 L 110.33610666285011 337.41454288439303 L 112.08747343527631 337.41454288439303 L 113.83884020770256 337.41454288439303 L 115.59020698012876 337.41454288439303 L 117.34157375255495 337.41454288439303 L 119.09294052498115 337.41454288439303 L 120.84430729740728 337.41454288439303 L 122.59567406983354 337.41454288439303 L 124.34704084225967 337.41454288439303 L 126.09840761468587 337.41454288439303 L 127.84977438711206 337.41454288439303 L 129.60114115953826 337.41454288439303 L 131.35250793196445 337.41454288439303 L 133.10387470439065 337.41454288439303 L 134.85524147681684 337.41454288439303 L 136.60660824924304 337.41454288439303 L 138.35797502166923 337.41454288439303 L 140.10934179409537 337.41454288439303 L 141.86070856652162 337.41454288439303 L 143.61207533894776 337.41454288439303 L 145.36344211137396 337.41454288439303 L 147.1148088838002 337.41454288439303 L 148.8661756562264 337.41454288439303 L 150.6175424286526 337.41454288439303 L 152.3689092010788 337.41454288439303 L 154.120275973505 337.41454288439303 L 155.87164274593113 337.41454288439303 L 157.62300951835732 337.41454288439303 L 159.37437629078352 337.41454288439303 L 161.12574306320977 337.41454288439303 L 162.87710983563596 337.41454288439303 L 164.6284766080621 337.41454288439303 L 166.3798433804883 337.41454288439303 L 168.1312101529145 337.41454288439303 L 169.8825769253407 337.41454288439303 L 171.63394369776688 337.41454288439303 L 173.38531047019308 337.41454288439303 L 175.13667724261927 337.41454288439303 L 176.88804401504547 337.41454288439303 L 178.63941078747166 337.41454288439303 L 180.39077755989786 337.41454288439303 L 182.14214433232405 337.41454288439303 L 183.89351110475025 337.41454288439303 L 185.64487787717644 337.41454288439303 L 187.39624464960264 337.41454288439303 L 189.14761142202883 337.41454288439303 L 190.89897819445503 337.41454288439303 L 192.6503449668812 337.41454288439303 L 194.4017117393074 337.41454288439303 L 196.15307851173358 337.41454288439303 L 197.90444528415978 337.41454288439303 L 199.65581205658597 337.41454288439303 L 201.40717882901214 337.41454288439303 L 203.15854560143836 337.41454288439303 L 204.90991237386456 337.41454288439303 L 206.66127914629075 337.41454288439303 L 208.41264591871695 337.41454288439303 L 210.16401269114314 337.41454288439303 L 211.9153794635693 337.41454288439303 L 213.6667462359955 337.41454288439303 L 215.4181130084217 337.41454288439303 L 217.16947978084792 337.41454288439303 L 218.92084655327412 337.41454288439303 L 220.67221332570028 337.41454288439303 L 222.42358009812648 337.41454288439303 L 224.17494687055267 337.41454288439303 L 225.92631364297887 337.41454288439303 L 227.67768041540506 337.41454288439303 L 229.42904718783123 337.41454288439303 L 231.18041396025743 337.41454288439303 L 232.93178073268362 337.41454288439303 L 234.68314750510984 337.41454288439303 L 236.43451427753604 337.41454288439303 L 238.1858810499622 337.41454288439303 L 239.9372478223884 337.41454288439303 L 241.6886145948146 337.41454288439303 L 243.4399813672408 337.41454288439303 L 245.19134813966699 337.41454288439303 L 246.94271491209318 337.41454288439303 L 248.69408168451935 337.41454288439303 L 250.44544845694557 337.41454288439303 L 252.19681522937177 337.41454288439303 L 253.94818200179796 337.41454288439303 L 255.69954877422416 337.41454288439303 L 257.4509155466503 337.41454288439303 L 259.2022823190765 337.41454288439303 L 260.9536490915027 337.41454288439303 L 262.7050158639289 337.41454288439303 L 264.4563826363551 337.41454288439303 L 266.2077494087813 337.41454288439303 L 267.9591161812075 337.41454288439303 L 269.7104829536337 337.41454288439303 L 271.4618497260599 337.41454288439303 L 273.2132164984861 337.41454288439303 L 274.96458327091227 337.41454288439303 L 276.71595004333847 337.41454288439303 L 278.46731681576466 337.41454288439303 L 280.21868358819086 337.41454288439303 L 281.97005036061705 337.41454288439303 L 283.72141713304325 337.41454288439303 L 285.47278390546944 337.41454288439303 L 287.22415067789564 337.41454288439303 L 288.97551745032183 337.41454288439303 L 290.726884222748 337.41454288439303 L 292.4782509951742 337.41454288439303 L 294.22961776760036 337.41454288439303 L 295.98098454002655 337.41454288439303 L 297.7323513124528 337.41454288439303 L 299.483718084879 337.41454288439303 L 301.2350848573052 337.41454288439303 L 302.9864516297314 337.41454288439303 L 304.7378184021576 337.41454288439303 L 306.4891851745838 337.41454288439303 L 308.24055194701 337.41454288439303 L 309.99191871943606 337.41454288439303 L 311.74328549186225 337.41454288439303 L 313.49465226428845 337.41454288439303 L 315.2460190367147 337.41454288439303 L 316.9973858091409 337.41454288439303 L 318.7487525815671 337.41454288439303 L 320.5001193539933 337.41454288439303 L 322.2514861264195 337.41454288439303 L 324.0028528988457 337.41454288439303 L 325.75421967127187 337.41454288439303 L 327.505586443698 337.41454288439303 L 329.2569532161242 337.41454288439303 L 331.0083199885504 337.41454288439303 L 332.7596867609766 337.41454288439303 L 334.5110535334028 337.41454288439303 L 336.262420305829 337.41454288439303 L 338.0137870782552 337.41454288439303 L 339.7651538506814 337.41454288439303 L 341.5165206231076 337.41454288439303 L 343.2678873955338 337.41454288439303 L 345.01925416796 337.41454288439303 L 346.77062094038615 337.41454288439303 L 348.52198771281235 337.41454288439303 L 350.27335448523854 337.41454288439303 L 352.02472125766474 337.41454288439303 L 353.77608803009093 337.41454288439303 L 355.5274548025171 337.41454288439303 L 357.2788215749433 337.41454288439303 L 359.0301883473695 337.41454288439303 L 360.7815551197957 337.41454288439303 L 362.5329218922219 337.41454288439303 L 364.28428866464805 337.41454288439303 L 366.03565543707424 337.41454288439303 L 367.7870222095005 337.41454288439303 L 369.5383889819267 337.41454288439303 L 371.2897557543529 337.41454288439303 L 373.0411225267791 337.41454288439303 L 374.7924892992053 337.41454288439303 L 376.54385607163147 337.41454288439303 L 378.29522284405766 337.41454288439303 L 380.04658961648386 337.41454288439303 L 381.79795638891005 337.41454288439303 L 383.5493231613362 337.41454288439303 L 385.3006899337624 337.41454288439303 L 387.0520567061886 337.41454288439303 L 388.8034234786148 337.41454288439303 L 390.55479025104097 337.41454288439303 L 392.30615702346716 337.41454288439303 L 394.05752379589336 337.41454288439303 L 395.80889056831955 337.41454288439303 L 397.5602573407458 337.41454288439303 L 399.311624113172 337.41454288439303 L 401.0629908855982 337.41454288439303 L 402.8143576580243 337.41454288439303 L 404.56572443045053 337.41454288439303 L 406.3170912028767 337.41454288439303 L 408.0684579753029 337.41454288439303 L 409.8198247477291 337.41454288439303 L 411.5711915201553 337.41454288439303 L 413.3225582925815 337.41454288439303 L 415.0739250650077 337.41454288439303 L 416.8252918374339 337.41454288439303 L 418.5766586098601 337.41454288439303 L 420.3280253822863 337.41454288439303 L 422.0793921547124 337.41454288439303 L 423.8307589271386 337.41454288439303 L 425.5821256995648 337.41454288439303 L 427.333492471991 337.41454288439303 L 429.0848592444172 337.41454288439303 L 430.8362260168434 337.41454288439303 L 432.58759278926965 337.41454288439303 L 434.33895956169584 337.41454288439303 L 436.09032633412204 337.41454288439303 L 437.84169310654823 337.41454288439303 L 439.5930598789744 337.41454288439303 L 441.34442665140057 337.41454288439303 L 443.09579342382676 337.41454288439303 L 444.84716019625296 337.41454288439303 L 446.59852696867915 337.41454288439303 L 448.34989374110535 337.41454288439303 M 448.34989374110535 337.41454288439303 L 450.10243321867915 332.1569244516716 L 451.85497269625296 326.8993060189502 L 453.60751217382676 321.6416875862288 L 455.36005165140057 316.38406915350737 L 457.1125911289744 311.12645072078595 L 458.8651306065482 305.8688322880645 L 460.617670084122 300.61121385534307 L 462.3702095616958 295.35359542262165 L 464.1227490392696 290.09597698990024 L 465.8752885168434 284.8383585571788 L 467.6278279944172 279.5807401244574 L 469.380367471991 274.323121691736 L 471.1329069495648 269.0655032590146 L 472.8854464271387 263.80788482629316 L 474.6379859047124 258.55026639357175 L 476.3905253822863 253.29264796085033 L 478.1430648598601 248.0350295281289 L 479.8956043374339 242.77741109540747 L 481.6481438150077 237.51979266268606 L 483.4006832925815 232.26217422996461 L 485.1532227701553 227.0045557972432 L 486.9057622477291 221.74693736452178 L 488.6583017253029 216.48931893180037 L 490.4108412028767 211.23170049907895 L 492.16338068045053 205.97408206635754 L 493.91592015802433 200.7164636336361 L 495.66845963559814 195.45884520091468 L 497.42099911317194 190.20122676819327 L 499.17353859074575 184.94360833547185 L 500.92607806831955 179.68598990275044 L 502.67861754589336 174.42837147002902 L 504.43115702346716 169.1707530373076 L 506.18369650104097 163.91313460458616 L 507.9362359786148 158.65551617186475 L 509.6887754561886 153.39789773914333 L 511.4413149337624 148.14027930642192 L 513.1938544113362 142.8826608737005 L 514.94639388891 137.6250424409791 L 516.6989333664839 132.36742400825764 L 518.4514728440577 127.10980557553623 L 520.2040123216315 121.85218714281481 L 521.9565517992053 116.5945687100934 L 523.7090912767791 111.33695027737198 L 525.4616307543529 106.07933184465054 L 527.2141702319267 100.82171341192912 L 528.9667097095005 95.56409497920774 L 530.7192491870743 90.3064765464863 L 532.4717886646481 85.04885811376488 L 534.2243281422219 79.79123968104346 L 535.9768676197957 74.53362124832205 L 537.7294070973695 69.27600281560058 L 539.4819465749433 64.01838438287916 L 541.2344860525171 58.760765950157804 L 542.9870255300909 53.50314751743633 L 544.7395650076647 48.24552908471492 L 546.4921044852385 42.9879106519935 L 548.2446439628123 37.73029221927209 L 549.9971834403862 32.47267378655067 L 551.74972291796 27.215055353829257 L 553.5022623955338 21.957436921107842 L 555.2548018731076 16.699818488386427 L 557.0073413506814 11.442200055665012 L 558.7598808282552 6.18458162294354 L 560.512420305829 0.9269631902221818 L 562.2649597834028 -4.330655242499233 L 564.0174992609766 -9.588273675220705" stroke-opacity="0.4980392156862745" stroke-linecap="round" stroke-linejoin="round" stroke-miterlimit="10" stroke-width="3.5"/><path fill="none" stroke="rgb(0,51,204)" paint-order="fill stroke markers" d=" M 0 560.7463669196134 L 1.751366772426195 560.7332921819254 L 3.50273354485239 560.7199069758985 L 5.254100317278585 560.7062039292557 L 7.00546708970478 560.6921754946601 L 8.756833862130975 560.6778139455585 L 10.508200634557113 560.6631113719253 L 12.259567406983308 560.6480596759064 L 14.010934179409503 560.6326505673588 L 15.762300951835698 560.6168755592843 L 17.513667724261893 560.6007259631552 L 19.265034496688145 560.5841928841293 L 21.01640126911434 560.5672672161502 L 22.767768041540535 560.5499396369321 L 24.51913481396673 560.5322006028257 L 26.270501586392925 560.5140403435607 L 28.021868358819063 560.4954488568662 L 29.773235131245258 560.4764159029597 L 31.524601903671453 560.4569309989091 L 33.27596867609765 560.4369834128576 L 35.02733544852384 560.4165621581134 L 36.77870222095004 560.3956559870986 L 38.53006899337623 560.3742533851539 L 40.28143576580243 560.352342564197 L 42.03280253822862 560.3299114562294 L 43.78416931065482 560.3069477066902 L 45.53553608308101 560.283438667651 L 47.28690285550715 560.2593713908504 L 49.038269627933346 560.2347326205613 L 50.78963640035954 560.2095087862912 L 52.54100317278579 560.1836859953066 L 54.29236994521199 560.1572500249822 L 56.04373671763818 560.1301863149671 L 57.79510349006438 560.1024799591647 L 59.54647026249057 560.0741156975238 L 61.29783703491677 560.0450779076326 L 63.04920380734296 560.0153505961152 L 64.80057057976916 559.9849173898223 L 66.5519373521953 559.9537615268127 L 68.30330412462149 559.9218658471227 L 70.05467089704769 559.8892127833132 L 71.80603766947388 559.8557843507946 L 73.55740444190008 559.8215621379215 L 75.30877121432627 559.7865272958518 L 77.06013798675247 559.7506605281646 L 78.81150475917866 559.7139420802336 L 80.56287153160491 559.6763517283446 L 82.314238304031 559.6378687685587 L 84.0656050764573 559.5984720053082 L 85.81697184888344 559.5581397397218 L 87.56833862130964 559.5168497576749 L 89.31970539373583 559.4745793175534 L 91.07107216616203 559.4313051377285 L 92.82243893858822 559.3870033837334 L 94.57380571101442 559.3416496551365 L 96.32517248344061 559.2952189721015 L 98.0765392558668 559.2476857616291 L 99.827906028293 559.1990238434723 L 101.57927280071914 559.149206415717 L 103.33063957314539 559.0982060400194 L 105.08200634557153 559.045994626494 L 106.83337311799772 558.9925434182427 L 108.58473989042392 558.9378229755152 L 110.33610666285011 558.8818031594953 L 112.08747343527631 558.8244531157003 L 113.83884020770256 558.7657412569871 L 115.59020698012876 558.7056352461551 L 117.34157375255495 558.6441019781355 L 119.09294052498115 558.5811075617576 L 120.84430729740728 558.5166173010819 L 122.59567406983354 558.4505956762912 L 124.34704084225967 558.3830063241264 L 126.09840761468587 558.313812017859 L 127.84977438711206 558.2429746467866 L 129.60114115953826 558.170455195243 L 131.35250793196445 558.0962137211093 L 133.10387470439065 558.0202093338141 L 134.85524147681684 557.9424001718123 L 136.60660824924304 557.8627433795288 L 138.35797502166923 557.7811950837539 L 140.10934179409537 557.69771036948 L 141.86070856652162 557.6122432551622 L 143.61207533894776 557.5247466673936 L 145.36344211137396 557.4351724149778 L 147.1148088838002 557.3434711623865 L 148.8661756562264 557.2495924025866 L 150.6175424286526 557.1534844292214 L 152.3689092010788 557.0550943081329 L 154.120275973505 556.9543678482062 L 155.87164274593113 556.8512495715222 L 157.62300951835732 556.745682682802 L 159.37437629078352 556.6376090381249 L 161.12574306320977 556.526969112904 L 162.87710983563596 556.4137019691016 L 164.6284766080621 556.2977452216659 L 166.3798433804883 556.1790350041705 L 168.1312101529145 556.0575059336383 L 169.8825769253407 555.9330910745297 L 171.63394369776688 555.8057219018765 L 173.38531047019308 555.6753282635394 L 175.13667724261927 555.5418383415702 L 176.88804401504547 555.4051786126552 L 178.63941078747166 555.2652738076213 L 180.39077755989786 555.1220468699785 L 182.14214433232405 554.9754189134794 L 183.89351110475025 554.8253091786702 L 185.64487787717644 554.6716349884101 L 187.39624464960264 554.5143117023346 L 189.14761142202883 554.3532526702376 L 190.89897819445503 554.188369184346 L 192.6503449668812 554.0195704304621 L 194.4017117393074 553.8467634379442 L 196.15307851173358 553.6698530285012 L 197.90444528415978 553.4887417637701 L 199.65581205658597 553.3033298916494 L 201.40717882901214 553.1135152913571 L 203.15854560143836 552.9191934171861 L 204.90991237386456 552.7202572409211 L 206.66127914629075 552.5165971928916 L 208.41264591871695 552.3081011016216 L 210.16401269114314 552.0946541320494 L 211.9153794635693 551.8761387222783 L 213.6667462359955 551.6524345188258 L 215.4181130084217 551.4234183103364 L 217.16947978084792 551.188963959719 L 218.92084655327412 550.9489423346733 L 220.67221332570028 550.7032212365666 L 222.42358009812648 550.4516653276219 L 224.17494687055267 550.1941360563766 L 225.92631364297887 549.9304915813718 L 227.67768041540506 549.6605866930284 L 229.42904718783123 549.3842727336697 L 231.18041396025743 549.1013975156435 L 232.93178073268362 548.8118052375005 L 234.68314750510984 548.5153363981825 L 236.43451427753604 548.2118277091727 L 238.1858810499622 547.9011120045599 L 239.9372478223884 547.583018148967 L 241.6886145948146 547.2573709432938 L 243.4399813672408 546.9239910282209 L 245.19134813966699 546.5826947854229 L 246.94271491209318 546.2332942364345 L 248.69408168451935 545.8755969391175 L 250.44544845694557 545.5094058816668 L 252.19681522937177 545.134519374101 L 253.94818200179796 544.7507309371764 L 255.69954877422416 544.3578291886618 L 257.4509155466503 543.9555977269147 L 259.2022823190765 543.5438150116918 L 260.9536490915027 543.1222542421292 L 262.7050158639289 542.6906832318259 L 264.4563826363551 542.2488642809603 L 266.2077494087813 541.7965540453708 L 267.9591161812075 541.3335034025265 L 269.7104829536337 540.8594573143166 L 271.4618497260599 540.3741546865808 L 273.2132164984861 539.8773282253043 L 274.96458327091227 539.3687042893982 L 276.71595004333847 538.8480027399842 L 278.46731681576466 538.3149367860998 L 280.21868358819086 537.7692128267407 L 281.97005036061705 537.2105302891514 L 283.72141713304325 536.6385814632765 L 285.47278390546944 536.053051332281 L 287.22415067789564 535.4536173990454 L 288.97551745032183 534.8399495085416 L 290.726884222748 534.2117096659913 L 292.4782509951742 533.5685518507051 L 294.22961776760036 532.9101218255026 L 295.98098454002655 532.2360569416059 L 297.7323513124528 531.5459859389005 L 299.483718084879 530.8395287414539 L 301.2350848573052 530.1162962481781 L 302.9864516297314 529.3758901185208 L 304.7378184021576 528.6179025530685 L 306.4891851745838 527.8419160689394 L 308.24055194701 527.0475032698434 L 309.99191871943606 526.2342266106814 L 311.74328549186225 525.4016381565543 L 313.49465226428845 524.549279336052 L 315.2460190367147 523.6766806886807 L 316.9973858091409 522.7833616062953 L 318.7487525815671 521.8688300683909 L 320.5001193539933 520.9325823711083 L 322.2514861264195 519.9741028498056 L 324.0028528988457 518.992863595041 L 325.75421967127187 517.9883241618118 L 327.505586443698 516.9599312718899 L 329.2569532161242 515.9071185090875 L 331.0083199885504 514.8293060072876 L 332.7596867609766 513.7259001310676 L 334.5110535334028 512.5962931487363 L 336.262420305829 511.43986289760966 L 338.0137870782552 510.2559724413373 L 339.7651538506814 509.0439697190915 L 341.5165206231076 507.8031871864268 L 343.2678873955338 506.53294144761105 L 345.01925416796 505.232532879226 L 346.77062094038615 503.9012452448304 L 348.52198771281235 502.53834530047243 L 350.27335448523854 501.14308239083505 L 352.02472125766474 499.7146880357917 L 353.77608803009093 498.2523755071444 L 355.5274548025171 496.755339395311 L 357.2788215749433 495.2227551657234 L 359.0301883473695 493.65377870469194 L 360.7815551197957 492.0475458544863 L 362.5329218922219 490.4031719373762 L 364.28428866464805 488.7197512683706 L 366.03565543707424 486.9963566563861 L 367.7870222095005 485.2320388935708 L 369.5383889819267 483.4258262325011 L 371.2897557543529 481.57672385096475 L 373.0411225267791 479.68371330403494 L 374.7924892992053 477.74575196313276 L 376.54385607163147 475.7617724417705 L 378.29522284405766 473.73068200765886 L 380.04658961648386 471.6513619808536 L 381.79795638891005 469.5226671176117 L 383.5493231613362 467.343424979616 L 385.3006899337624 465.11243528822183 L 387.0520567061886 462.8284692633703 L 388.8034234786148 460.4902689468031 L 390.55479025104097 458.09654650920675 L 392.30615702346716 455.64598354090447 L 394.05752379589336 453.1372303257051 L 395.80889056831955 450.5689050975094 L 397.5602573407458 447.9395932792633 L 399.311624113172 445.24784670384014 L 401.0629908855982 442.4921828164221 L 402.8143576580243 439.67108385794165 L 404.56572443045053 436.78299602913285 L 406.3170912028767 433.82632863473333 L 408.0684579753029 430.7994532073643 L 409.8198247477291 427.7007026106063 L 411.5711915201553 424.5283701207772 L 413.3225582925815 421.28070848690635 L 415.0739250650077 417.9559289683872 L 416.8252918374339 414.5522003497783 L 418.5766586098601 411.06764793221 L 420.3280253822863 407.50035250084176 L 422.0793921547124 403.8483492678008 L 423.8307589271386 400.1096267900195 L 425.5821256995648 396.2821258613779 L 427.333492471991 392.36373837853745 L 429.0848592444172 388.35230617984433 L 430.8362260168434 384.24561985666156 L 432.58759278926965 380.04141753647497 L 434.33895956169584 375.7373836371038 L 436.09032633412204 371.33114759132917 L 437.84169310654823 366.82028254123725 L 439.5930598789744 362.20230400156 L 441.34442665140057 357.4746684912742 L 443.09579342382676 352.63477213270943 L 444.84716019625296 347.67994921738864 L 446.59852696867915 342.60747073781465 L 448.34989374110535 337.41454288439303 M 448.34989374110535 337.41454288439303 L 450.10243321867915 332.1569244516716 L 451.85497269625296 326.8993060189502 L 453.60751217382676 321.6416875862288 L 455.36005165140057 316.38406915350737 L 457.1125911289744 311.12645072078595 L 458.8651306065482 305.8688322880645 L 460.617670084122 300.61121385534307 L 462.3702095616958 295.35359542262165 L 464.1227490392696 290.09597698990024 L 465.8752885168434 284.8383585571788 L 467.6278279944172 279.5807401244574 L 469.380367471991 274.323121691736 L 471.1329069495648 269.0655032590146 L 472.8854464271387 263.80788482629316 L 474.6379859047124 258.55026639357175 L 476.3905253822863 253.29264796085033 L 478.1430648598601 248.0350295281289 L 479.8956043374339 242.77741109540747 L 481.6481438150077 237.51979266268606 L 483.4006832925815 232.26217422996461 L 485.1532227701553 227.0045557972432 L 486.9057622477291 221.74693736452178 L 488.6583017253029 216.48931893180037 L 490.4108412028767 211.23170049907895 L 492.16338068045053 205.97408206635754 L 493.91592015802433 200.7164636336361 L 495.66845963559814 195.45884520091468 L 497.42099911317194 190.20122676819327 L 499.17353859074575 184.94360833547185 L 500.92607806831955 179.68598990275044 L 502.67861754589336 174.42837147002902 L 504.43115702346716 169.1707530373076 L 506.18369650104097 163.91313460458616 L 507.9362359786148 158.65551617186475 L 509.6887754561886 153.39789773914333 L 511.4413149337624 148.14027930642192 L 513.1938544113362 142.8826608737005 L 514.94639388891 137.6250424409791 L 516.6989333664839 132.36742400825764 L 518.4514728440577 127.10980557553623 L 520.2040123216315 121.85218714281481 L 521.9565517992053 116.5945687100934 L 523.7090912767791 111.33695027737198 L 525.4616307543529 106.07933184465054 L 527.2141702319267 100.82171341192912 L 528.9667097095005 95.56409497920774 L 530.7192491870743 90.3064765464863 L 532.4717886646481 85.04885811376488 L 534.2243281422219 79.79123968104346 L 535.9768676197957 74.53362124832205 L 537.7294070973695 69.27600281560058 L 539.4819465749433 64.01838438287916 L 541.2344860525171 58.760765950157804 L 542.9870255300909 53.50314751743633 L 544.7395650076647 48.24552908471492 L 546.4921044852385 42.9879106519935 L 548.2446439628123 37.73029221927209 L 549.9971834403862 32.47267378655067 L 551.74972291796 27.215055353829257 L 553.5022623955338 21.957436921107842 L 555.2548018731076 16.699818488386427 L 557.0073413506814 11.442200055665012 L 558.7598808282552 6.18458162294354 L 560.512420305829 0.9269631902221818 L 562.2649597834028 -4.330655242499233 L 564.0174992609766 -9.588273675220705" stroke-opacity="0.4980392156862745" stroke-linecap="round" stroke-linejoin="round" stroke-miterlimit="10" stroke-width="3.5"/><path fill="none" stroke="rgb(46,125,50)" paint-order="fill stroke markers" d=" M 0 336.86527796800584 L 3.50390625 336.83894177887805 L 7.0078125 336.81134623107107 L 10.51171875 336.7824314386621 L 14.015625 336.7521347008468 L 17.51953125 336.7203903728561 L 21.0234375 336.6871297312727 L 24.52734375 336.652280833535 L 28.03125 336.6157683714136 L 31.535156249999943 336.57751351824044 L 35.0390625 336.5374337696651 L 38.54296875 336.4954427777127 L 42.046875 336.45145017791054 L 45.55078125000006 336.4053614092517 L 49.0546875 336.3570775267602 L 52.55859375 336.30649500642005 L 56.0625 336.2535055422349 L 59.56640624999994 336.19799583517874 L 63.0703125 336.1398473738073 L 66.57421875 336.07893620629727 L 70.078125 336.01513270368883 L 73.58203125 335.9483013141108 L 77.0859375 335.87830030777695 L 80.58984375 335.8049815125528 L 84.09375 335.728190039901 L 87.59765625 335.64776400103403 L 91.1015625 335.5635342131138 L 94.60546875 335.47532389536366 L 98.10937500000006 335.3829483549791 L 101.61328125 335.2862146627523 L 105.1171875 335.18492131835694 L 108.62109375 335.0788579052754 L 112.12499999999994 334.96780473539246 L 115.62890625 334.85153248332415 L 119.1328125 334.72980181060433 L 122.63671875 334.6023629799081 L 126.14062500000006 334.4689554595573 L 129.64453125 334.3293075186255 L 133.1484375 334.1831358130397 L 136.65234375 334.0301449631663 L 140.15624999999994 333.8700271234657 L 143.66015625 333.7024615449091 L 147.1640625 333.5271141309691 L 150.66796875 333.3436369881268 L 154.171875 333.15166797197855 L 157.67578125 332.9508302301831 L 161.1796875 332.74073174365543 L 164.68359375 332.520964867599 L 168.1875 332.2911058741643 L 171.69140625 332.0507144987359 L 175.1953125 331.79933349207937 L 178.69921875 331.53648818082746 L 182.203125 331.2616860390472 L 185.70703125 330.9744162739135 L 189.2109375 330.67414942881345 L 192.71484375 330.3603370075249 L 196.21875 330.0324111234482 L 199.72265625 329.68978417822586 L 203.2265625 329.33184857445457 L 206.73046875 328.9579764675836 L 210.234375 328.56751956249656 L 213.73828125 328.15980896069016 L 217.2421875 327.73415506439227 L 220.74609375 327.2898475443998 L 224.25 326.82615537885954 L 227.75390625000003 326.34232697066165 L 231.2578125 325.83759035155754 L 234.76171875000003 325.3111534815509 L 238.265625 324.7622046525314 L 241.76953125000003 324.1899130055222 L 245.2734375 323.5934291712847 L 248.77734375 322.97188604435917 L 252.28125 322.3243997009074 L 255.78515625 321.6500704709514 L 259.2890625 320.947984175761 L 262.79296875 320.21721354121735 L 266.296875 319.45681979795364 L 269.80078125 318.66585447893846 L 273.3046875 317.843361424899 L 276.80859375 316.98837900756666 L 280.3125 316.09994258015223 L 283.81640625 315.17708716369657 L 287.3203125 314.2188503769853 L 290.82421875 313.22427561654206 L 294.328125 312.19241549180424 L 297.83203125 311.1223355189323 L 301.3359375 310.01311807478146 L 304.83984375 308.8638666103757 L 308.34375 307.67371012075023 L 311.84765625 306.4418078652718 L 315.3515625 305.1673543295023 L 318.85546875 303.8495844163527 L 322.359375 302.48777885068597 L 325.86328125 301.0812697776944 L 329.3671875 299.62944653132206 L 332.87109375 298.13176154476673 L 336.37500000000006 296.58773637071647 L 339.87890625 294.9969677745146 L 343.3828125 293.3591338589598 L 346.88671875 291.6740001750152 L 350.39062500000006 289.9414257684001 L 353.89453125 288.16136910796047 L 357.3984375 286.3338938379612 L 360.90234375 284.4591742931165 L 364.40625 282.5375007123802 L 367.91015625 280.56928408537283 L 371.4140625 278.5550605639249 L 374.91796875 276.4954953706848 L 378.421875 274.39138613715807 L 381.92578125 272.24366560501215 L 385.4296875 270.05340362706266 L 388.93359375 267.8218084081081 L 392.4375 265.5502269307352 L 395.94140625 263.2401445173818 L 399.4453125 260.8931834872958 L 402.94921875000006 258.5111008755248 L 406.453125 256.09578519061563 L 409.95703125 253.64925219820032 L 413.4609375 251.1736397289314 L 416.96484375000006 248.67120152115072 L 420.46875 246.1443001210107 L 423.97265625 243.59539887531133 L 427.4765625 241.02705306481687 L 430.98046875000006 238.44190023802636 L 434.484375 235.8426498170369 L 437.98828125 233.23207205799974 L 441.4921875 230.6129864584911 L 444.99609375000006 227.98824971266743 L 448.5 225.3607433221598 L 452.00390625 222.73336097610297 L 455.50781250000006 220.1089958173763 L 459.01171875 217.49052771394986 L 462.515625 214.8808106541481 L 466.01953125 212.2826603826637 L 469.52343750000006 209.69884239031995 L 473.02734375 207.13206036499025 L 476.53125 204.5849452038674 L 480.03515625 202.0600446786093 L 483.53906250000006 199.55981383496908 L 487.04296875 197.08660619757566 L 490.546875 194.6426658388115 L 494.05078125 192.23012035848762 L 497.55468750000006 189.85097480850288 L 501.05859375 187.50710658413843 L 504.5625 185.20026129132953 L 508.06640625000006 182.93204958738534 L 511.5703125 180.70394498139828 L 515.07421875 178.5172825701672 L 518.578125 176.37325867599722 L 522.08203125 174.27293134433998 L 525.5859375 172.21722165198577 L 529.08984375 170.20691577045716 L 532.59375 168.24266772440401 L 536.09765625 166.32500278114873 L 539.6015625 164.4543214050467 L 543.10546875 162.6309037089551 L 546.609375 160.8549143347652 L 550.11328125 159.12640769556774 L 553.6171875 157.4453335134817 L 557.12109375 155.8115425893857 L 560.625 154.22479274363346 L 564.12890625 152.68475487020183 L 567.6328125 151.19101905050752 L 571.13671875 149.74310067722539 L 574.640625 148.34044654275866 L 578.14453125 146.98244085145205 L 581.6484375 145.66841111912416 L 585.15234375 144.397633927955 L 588.65625 143.1693405091315 L 592.16015625 141.98272212987678 L 595.6640625 140.8369352655265 L 599.16796875 139.73110654112864 L 602.671875 138.66433743060756 L 606.17578125 137.63570870483062 L 609.6796875 136.6442846229342 L 613.18359375 135.6891168639978 L 616.6875 134.76924819860446 L 620.1914062500001 133.8837159019927 L 623.6953125 133.03155491240136 L 627.19921875 132.2118007398427 L 630.703125 131.42349213192722 L 634.20703125 130.66567350451902 L 637.7109375 129.93739714594116 L 641.21484375 129.23772520419277 L 644.71875 128.56573146720405 L 648.2226562500001 127.92050294655331 L 651.7265625 127.30114127532903 L 655.23046875 126.70676393094362 L 658.734375 126.13650529372438 L 662.23828125 125.58951755202295 L 665.7421875 125.06497146442095 L 669.24609375 124.56205698937526 L 672.7500000000001 124.07998379235462 L 676.25390625 123.61798164018032 L 679.7578125 123.17530069190857 L 683.26171875 122.75121169518965 L 686.765625 122.34500609661399 L 690.26953125 121.95599607412078 L 693.7734375 121.58351449909958 L 697.27734375 121.2269148353707 L 700.7812500000001 120.88557098178654 L 704.28515625 120.5588770647592 L 707.7890625 120.24624718659186 L 711.29296875 119.94711513507616 L 714.796875 119.66093405941461 L 718.30078125 119.38717611714156 L 721.8046875 119.1253320963448 L 725.30859375 118.87491101713866 L 728.8125 118.63543971600285 L 732.31640625 118.40646241628616 L 735.8203125 118.18754028787419 L 739.32421875 117.97825099874089 L 742.828125 117.7781882608408 L 746.33203125 117.58696137255274 L 749.8359375 117.40419475965888 L 753.33984375 117.2295275166293 L 756.84375 117.06261294978688 L 760.34765625 116.90311812374526 L 763.8515625 116.75072341234494 L 767.35546875 116.60512205515982 L 770.859375 116.46601972050391 L 774.36328125 116.33313407574002 L 777.8671875 116.2061943655738 L 781.37109375 116.08494099890922 L 784.875 115.96912514474462 L 788.37890625 115.85850833749933 L 791.8828125 115.75286209208224 L 795.38671875 115.65196752894096 L 798.890625 115.55561500926655 L 802.39453125 115.46360378047021 L 805.8984375 115.37574163199778 L 809.40234375 115.29184456150179 L 812.90625 115.21173645134954 L 816.41015625 115.13524875541188 L 819.9140625 115.0622201960442 L 823.41796875 114.99249647114473 L 826.921875 114.92592997115202 L 830.42578125 114.86237950582262 L 833.9296875 114.80171004061276 L 837.43359375 114.74379244247365 L 840.9375 114.6885032348577 L 844.44140625 114.63572436172339 L 847.9453125 114.58534296031797 L 851.44921875 114.53725114251213 L 854.953125 114.49134578445529 L 858.4570312500001 114.44752832431794 L 861.9609375 114.4057045678849 L 865.46484375 114.3657845017633 L 868.96875 114.32768211396905 L 872.47265625 114.29131522165667 L 875.9765625 114.25660530575979 L 879.48046875 114.2234773523113 L 882.984375 114.19185970021618 L 886.48828125 114.16168389525296 L 889.9921875 114.13288455008447 L 893.49609375 114.10539921006173 L 897 114.07916822461155" stroke-opacity="0.8" stroke-linecap="round" stroke-linejoin="round" stroke-miterlimit="10" stroke-width="2.5"/></g></g></svg>