<?xml version="1.0" encoding="UTF-8"?>
<!DOCTYPE svg PUBLIC "-//W3C//DTD SVG 1.1//EN" "http://www.w3.org/Graphics/SVG/1.1/DTD/svg11.dtd">
<svg width="73mm" height="61mm" viewBox="0 0 7300 6100" version="1.1" xmlns="http://www.w3.org/2000/svg" xmlns:xlink="http://www.w3.org/1999/xlink" stroke-width="28.222" stroke-linejoin="round" xml:space="preserve">
 <path fill="rgb(255,255,255)" stroke="none" d="M 3655,6128 L 0,6128 0,0 7309,0 7309,6128 3655,6128 Z"/>
 <path fill="none" stroke="rgb(179,179,179)" stroke-linejoin="round" d="M 4107,4957 L 1204,4957 1204,279 7011,279 7011,4957 4107,4957 Z"/>
 <path fill="none" stroke="rgb(179,179,179)" stroke-linejoin="round" d="M 1204,5106 L 1204,4956"/>
 <path fill="none" stroke="rgb(179,179,179)" stroke-linejoin="round" d="M 1204,5106 L 1204,4956"/>
 <path fill="none" stroke="rgb(179,179,179)" stroke-linejoin="round" d="M 1849,5106 L 1849,4956"/>
 <path fill="none" stroke="rgb(179,179,179)" stroke-linejoin="round" d="M 1849,5106 L 1849,4956"/>
 <path fill="none" stroke="rgb(179,179,179)" stroke-linejoin="round" d="M 2494,5106 L 2494,4956"/>
 <path fill="none" stroke="rgb(179,179,179)" stroke-linejoin="round" d="M 2494,5106 L 2494,4956"/>
 <path fill="none" stroke="rgb(179,179,179)" stroke-linejoin="round" d="M 3140,5106 L 3140,4956"/>
 <path fill="none" stroke="rgb(179,179,179)" stroke-linejoin="round" d="M 3140,5106 L 3140,4956"/>
 <path fill="none" stroke="rgb(179,179,179)" stroke-linejoin="round" d="M 3784,5106 L 3784,4956"/>
 <path fill="none" stroke="rgb(179,179,179)" stroke-linejoin="round" d="M 3784,5106 L 3784,4956"/>
 <path fill="none" stroke="rgb(179,179,179)" stroke-linejoin="round" d="M 4429,5106 L 4429,4956"/>
 <path fill="none" stroke="rgb(179,179,179)" stroke-linejoin="round" d="M 4429,5106 L 4429,4956"/>
 <path fill="none" stroke="rgb(179,179,179)" stroke-linejoin="round" d="M 5075,5106 L 5075,4956"/>
 <path fill="none" stroke="rgb(179,179,179)" stroke-linejoin="round" d="M 5075,5106 L 5075,4956"/>
 <path fill="none" stroke="rgb(179,179,179)" stroke-linejoin="round" d="M 5720,5106 L 5720,4956"/>
 <path fill="none" stroke="rgb(179,179,179)" stroke-linejoin="round" d="M 5720,5106 L 5720,4956"/>
 <path fill="none" stroke="rgb(179,179,179)" stroke-linejoin="round" d="M 6365,5106 L 6365,4956"/>
 <path fill="none" stroke="rgb(179,179,179)" stroke-linejoin="round" d="M 6365,5106 L 6365,4956"/>
 <path fill="none" stroke="rgb(179,179,179)" stroke-linejoin="round" d="M 7011,5106 L 7011,4956"/>
 <path fill="none" stroke="rgb(179,179,179)" stroke-linejoin="round" d="M 7011,5106 L 7011,4956"/>
 <path fill="none" stroke="rgb(179,179,179)" stroke-linejoin="round" d="M 1204,4956 L 7011,4956"/>
 <path fill="none" stroke="rgb(179,179,179)" stroke-linejoin="round" d="M 1054,4956 L 1204,4956"/>
 <path fill="none" stroke="rgb(179,179,179)" stroke-linejoin="round" d="M 1054,4956 L 1204,4956"/>
 <path fill="none" stroke="rgb(179,179,179)" stroke-linejoin="round" d="M 1054,4372 L 1204,4372"/>
 <path fill="none" stroke="rgb(179,179,179)" stroke-linejoin="round" d="M 1054,4372 L 1204,4372"/>
 <path fill="none" stroke="rgb(179,179,179)" stroke-linejoin="round" d="M 1054,3787 L 1204,3787"/>
 <path fill="none" stroke="rgb(179,179,179)" stroke-linejoin="round" d="M 1054,3787 L 1204,3787"/>
 <path fill="none" stroke="rgb(179,179,179)" stroke-linejoin="round" d="M 1054,3202 L 1204,3202"/>
 <path fill="none" stroke="rgb(179,179,179)" stroke-linejoin="round" d="M 1054,3202 L 1204,3202"/>
 <path fill="none" stroke="rgb(179,179,179)" stroke-linejoin="round" d="M 1054,2617 L 1204,2617"/>
 <path fill="none" stroke="rgb(179,179,179)" stroke-linejoin="round" d="M 1054,2617 L 1204,2617"/>
 <path fill="none" stroke="rgb(179,179,179)" stroke-linejoin="round" d="M 1054,2032 L 1204,2032"/>
 <path fill="none" stroke="rgb(179,179,179)" stroke-linejoin="round" d="M 1054,2032 L 1204,2032"/>
 <path fill="none" stroke="rgb(179,179,179)" stroke-linejoin="round" d="M 1054,1448 L 1204,1448"/>
 <path fill="none" stroke="rgb(179,179,179)" stroke-linejoin="round" d="M 1054,1448 L 1204,1448"/>
 <path fill="none" stroke="rgb(179,179,179)" stroke-linejoin="round" d="M 1054,863 L 1204,863"/>
 <path fill="none" stroke="rgb(179,179,179)" stroke-linejoin="round" d="M 1054,863 L 1204,863"/>
 <path fill="none" stroke="rgb(179,179,179)" stroke-linejoin="round" d="M 1054,278 L 1204,278"/>
 <path fill="none" stroke="rgb(179,179,179)" stroke-linejoin="round" d="M 1054,278 L 1204,278"/>
 <path fill="none" stroke="rgb(179,179,179)" stroke-linejoin="round" d="M 1204,4956 L 1204,278"/>
 <path fill="rgb(0,0,0)" stroke="none" d="M 1858,3579 L 1933,3654 2008,3579 1933,3504 1858,3579 Z"/>
 <path fill="none" stroke="rgb(0,0,0)" stroke-linejoin="round" d="M 1858,3579 L 1933,3654 2008,3579 1933,3504 1858,3579 Z"/>
 <path fill="rgb(0,0,0)" stroke="none" d="M 4193,2383 L 4268,2458 4343,2383 4268,2308 4193,2383 Z"/>
 <path fill="none" stroke="rgb(0,0,0)" stroke-linejoin="round" d="M 4193,2383 L 4268,2458 4343,2383 4268,2308 4193,2383 Z"/>
 <path fill="rgb(0,0,0)" stroke="none" d="M 6458,968 L 6533,1043 6608,968 6533,893 6458,968 Z"/>
 <path fill="none" stroke="rgb(0,0,0)" stroke-linejoin="round" d="M 6458,968 L 6533,1043 6608,968 6533,893 6458,968 Z"/>
 <path fill="rgb(0,0,0)" stroke="none" d="M 4645,1488 L 4720,1562 4795,1488 4720,1413 4645,1488 Z"/>
 <path fill="none" stroke="rgb(0,0,0)" stroke-linejoin="round" d="M 4645,1488 L 4720,1562 4795,1488 4720,1413 4645,1488 Z"/>
 <path fill="rgb(0,0,0)" stroke="none" d="M 5361,1313 L 5436,1388 5511,1313 5436,1238 5361,1313 Z"/>
 <path fill="none" stroke="rgb(0,0,0)" stroke-linejoin="round" d="M 5361,1313 L 5436,1388 5511,1313 5436,1238 5361,1313 Z"/>
 <path fill="none" stroke="rgb(0,0,0)" stroke-linejoin="round" d="M 1933,3527 L 6533,778"/>
 <text class="TextShape"><tspan class="TextParagraph" font-family="Liberation Sans, sans-serif" font-size="353px" font-weight="400"><tspan class="TextPosition" x="1019" y="5524"><tspan fill="rgb(0,0,0)" stroke="none">56</tspan></tspan></tspan></text>
 <text class="TextShape"><tspan class="TextParagraph" font-family="Liberation Sans, sans-serif" font-size="353px" font-weight="400"><tspan class="TextPosition" x="1664" y="5524"><tspan fill="rgb(0,0,0)" stroke="none">57</tspan></tspan></tspan></text>
 <text class="TextShape"><tspan class="TextParagraph" font-family="Liberation Sans, sans-serif" font-size="353px" font-weight="400"><tspan class="TextPosition" x="2309" y="5524"><tspan fill="rgb(0,0,0)" stroke="none">58</tspan></tspan></tspan></text>
 <text class="TextShape"><tspan class="TextParagraph" font-family="Liberation Sans, sans-serif" font-size="353px" font-weight="400"><tspan class="TextPosition" x="2955" y="5524"><tspan fill="rgb(0,0,0)" stroke="none">59</tspan></tspan></tspan></text>
 <text class="TextShape"><tspan class="TextParagraph" font-family="Liberation Sans, sans-serif" font-size="353px" font-weight="400"><tspan class="TextPosition" x="3600" y="5524"><tspan fill="rgb(0,0,0)" stroke="none">60</tspan></tspan></tspan></text>
 <text class="TextShape"><tspan class="TextParagraph" font-family="Liberation Sans, sans-serif" font-size="353px" font-weight="400"><tspan class="TextPosition" x="4245" y="5524"><tspan fill="rgb(0,0,0)" stroke="none">61</tspan></tspan></tspan></text>
 <text class="TextShape"><tspan class="TextParagraph" font-family="Liberation Sans, sans-serif" font-size="353px" font-weight="400"><tspan class="TextPosition" x="4891" y="5524"><tspan fill="rgb(0,0,0)" stroke="none">62</tspan></tspan></tspan></text>
 <text class="TextShape"><tspan class="TextParagraph" font-family="Liberation Sans, sans-serif" font-size="353px" font-weight="400"><tspan class="TextPosition" x="5536" y="5524"><tspan fill="rgb(0,0,0)" stroke="none">63</tspan></tspan></tspan></text>
 <text class="TextShape"><tspan class="TextParagraph" font-family="Liberation Sans, sans-serif" font-size="353px" font-weight="400"><tspan class="TextPosition" x="6181" y="5524"><tspan fill="rgb(0,0,0)" stroke="none">64</tspan></tspan></tspan></text>
 <text class="TextShape"><tspan class="TextParagraph" font-family="Liberation Sans, sans-serif" font-size="353px" font-weight="400"><tspan class="TextPosition" x="6827" y="5524"><tspan fill="rgb(0,0,0)" stroke="none">65</tspan></tspan></tspan></text>
 <text class="TextShape"><tspan class="TextParagraph" font-family="Liberation Sans, sans-serif" font-size="353px" font-weight="400"><tspan class="TextPosition" x="584" y="5077"><tspan fill="rgb(0,0,0)" stroke="none">72</tspan></tspan></tspan></text>
 <text class="TextShape"><tspan class="TextParagraph" font-family="Liberation Sans, sans-serif" font-size="353px" font-weight="400"><tspan class="TextPosition" x="584" y="4492"><tspan fill="rgb(0,0,0)" stroke="none">74</tspan></tspan></tspan></text>
 <text class="TextShape"><tspan class="TextParagraph" font-family="Liberation Sans, sans-serif" font-size="353px" font-weight="400"><tspan class="TextPosition" x="584" y="3907"><tspan fill="rgb(0,0,0)" stroke="none">76</tspan></tspan></tspan></text>
 <text class="TextShape"><tspan class="TextParagraph" font-family="Liberation Sans, sans-serif" font-size="353px" font-weight="400"><tspan class="TextPosition" x="584" y="3322"><tspan fill="rgb(0,0,0)" stroke="none">78</tspan></tspan></tspan></text>
 <text class="TextShape"><tspan class="TextParagraph" font-family="Liberation Sans, sans-serif" font-size="353px" font-weight="400"><tspan class="TextPosition" x="584" y="2738"><tspan fill="rgb(0,0,0)" stroke="none">80</tspan></tspan></tspan></text>
 <text class="TextShape"><tspan class="TextParagraph" font-family="Liberation Sans, sans-serif" font-size="353px" font-weight="400"><tspan class="TextPosition" x="584" y="2153"><tspan fill="rgb(0,0,0)" stroke="none">82</tspan></tspan></tspan></text>
 <text class="TextShape"><tspan class="TextParagraph" font-family="Liberation Sans, sans-serif" font-size="353px" font-weight="400"><tspan class="TextPosition" x="584" y="1568"><tspan fill="rgb(0,0,0)" stroke="none">84</tspan></tspan></tspan></text>
 <text class="TextShape"><tspan class="TextParagraph" font-family="Liberation Sans, sans-serif" font-size="353px" font-weight="400"><tspan class="TextPosition" x="584" y="983"><tspan fill="rgb(0,0,0)" stroke="none">86</tspan></tspan></tspan></text>
 <text class="TextShape"><tspan class="TextParagraph" font-family="Liberation Sans, sans-serif" font-size="353px" font-weight="400"><tspan class="TextPosition" x="584" y="398"><tspan fill="rgb(0,0,0)" stroke="none">88</tspan></tspan></tspan></text>
 <text class="TextShape"><tspan class="TextParagraph" font-family="Liberation Sans, sans-serif" font-size="318px" font-weight="400"><tspan class="TextPosition" x="3454" y="5955"><tspan fill="rgb(0,0,0)" stroke="none">IoU %</tspan></tspan></tspan></text>
 <text class="TextShape" transform="rotate(-90 386 3384)"><tspan class="TextParagraph" font-family="Liberation Sans, sans-serif" font-size="318px" font-weight="400"><tspan class="TextPosition" x="386" y="3384"><tspan fill="rgb(0,0,0)" stroke="none">BIoU %</tspan></tspan></tspan></text>
</svg>