<?xml version="1.0" encoding="UTF-8"?>
<!DOCTYPE svg PUBLIC "-//W3C//DTD SVG 1.1//EN" "http://www.w3.org/Graphics/SVG/1.1/DTD/svg11.dtd">
<svg width="142mm" height="116mm" viewBox="0 0 14200 11600" version="1.1" xmlns="http://www.w3.org/2000/svg" xmlns:xlink="http://www.w3.org/1999/xlink" stroke-width="28.222" stroke-linejoin="round" xml:space="preserve">
 <path fill="rgb(255,255,255)" stroke="none" d="M 7084,11616 L 0,11616 0,0 14168,0 14168,11616 7084,11616 Z"/>
 <path fill="none" stroke="rgb(179,179,179)" stroke-linejoin="round" d="M 7440,10407 L 1249,10407 1249,524 13632,524 13632,10407 7440,10407 Z"/>
 <path fill="none" stroke="rgb(179,179,179)" stroke-linejoin="round" d="M 1249,10556 L 1249,10406"/>
 <path fill="none" stroke="rgb(179,179,179)" stroke-linejoin="round" d="M 2797,10556 L 2797,10406"/>
 <path fill="none" stroke="rgb(179,179,179)" stroke-linejoin="round" d="M 4345,10556 L 4345,10406"/>
 <path fill="none" stroke="rgb(179,179,179)" stroke-linejoin="round" d="M 5892,10556 L 5892,10406"/>
 <path fill="none" stroke="rgb(179,179,179)" stroke-linejoin="round" d="M 7439,10556 L 7439,10406"/>
 <path fill="none" stroke="rgb(179,179,179)" stroke-linejoin="round" d="M 8988,10556 L 8988,10406"/>
 <path fill="none" stroke="rgb(179,179,179)" stroke-linejoin="round" d="M 10535,10556 L 10535,10406"/>
 <path fill="none" stroke="rgb(179,179,179)" stroke-linejoin="round" d="M 12083,10556 L 12083,10406"/>
 <path fill="none" stroke="rgb(179,179,179)" stroke-linejoin="round" d="M 13631,10556 L 13631,10406"/>
 <path fill="none" stroke="rgb(179,179,179)" stroke-linejoin="round" d="M 1249,10406 L 13631,10406"/>
 <path fill="none" stroke="rgb(179,179,179)" stroke-linejoin="round" d="M 1099,10406 L 1249,10406"/>
 <path fill="none" stroke="rgb(179,179,179)" stroke-linejoin="round" d="M 1099,9170 L 1249,9170"/>
 <path fill="none" stroke="rgb(179,179,179)" stroke-linejoin="round" d="M 1099,7935 L 1249,7935"/>
 <path fill="none" stroke="rgb(179,179,179)" stroke-linejoin="round" d="M 1099,6700 L 1249,6700"/>
 <path fill="none" stroke="rgb(179,179,179)" stroke-linejoin="round" d="M 1099,5464 L 1249,5464"/>
 <path fill="none" stroke="rgb(179,179,179)" stroke-linejoin="round" d="M 1099,4228 L 1249,4228"/>
 <path fill="none" stroke="rgb(179,179,179)" stroke-linejoin="round" d="M 1099,2993 L 1249,2993"/>
 <path fill="none" stroke="rgb(179,179,179)" stroke-linejoin="round" d="M 1099,1758 L 1249,1758"/>
 <path fill="none" stroke="rgb(179,179,179)" stroke-linejoin="round" d="M 1099,523 L 1249,523"/>
 <path fill="none" stroke="rgb(179,179,179)" stroke-linejoin="round" d="M 1249,10406 L 1249,523"/>
 <path fill="rgb(255,211,32)" stroke="none" d="M 5552,6927 L 5642,7107 5732,6927 5552,6927 Z"/>
 <path fill="none" stroke="rgb(255,211,32)" stroke-linejoin="round" d="M 5552,6927 L 5642,7107 5732,6927 5552,6927 Z"/>
 <path fill="rgb(255,211,32)" stroke="none" d="M 5849,6690 L 5939,6870 6029,6690 5849,6690 Z"/>
 <path fill="none" stroke="rgb(255,211,32)" stroke-linejoin="round" d="M 5849,6690 L 5939,6870 6029,6690 5849,6690 Z"/>
 <path fill="rgb(255,211,32)" stroke="none" d="M 4394,7681 L 4484,7861 4574,7681 4394,7681 Z"/>
 <path fill="none" stroke="rgb(255,211,32)" stroke-linejoin="round" d="M 4394,7681 L 4484,7861 4574,7681 4394,7681 Z"/>
 <path fill="rgb(255,211,32)" stroke="none" d="M 6335,5725 L 6425,5905 6515,5725 6335,5725 Z"/>
 <path fill="none" stroke="rgb(255,211,32)" stroke-linejoin="round" d="M 6335,5725 L 6425,5905 6515,5725 6335,5725 Z"/>
 <path fill="rgb(255,211,32)" stroke="none" d="M 7075,5127 L 7164,5307 7254,5127 7075,5127 Z"/>
 <path fill="none" stroke="rgb(255,211,32)" stroke-linejoin="round" d="M 7075,5127 L 7164,5307 7254,5127 7075,5127 Z"/>
 <path fill="rgb(255,211,32)" stroke="none" d="M 6239,6175 L 6329,6355 6419,6175 6239,6175 Z"/>
 <path fill="none" stroke="rgb(255,211,32)" stroke-linejoin="round" d="M 6239,6175 L 6329,6355 6419,6175 6239,6175 Z"/>
 <path fill="rgb(255,211,32)" stroke="none" d="M 8105,4484 L 8195,4664 8285,4484 8105,4484 Z"/>
 <path fill="none" stroke="rgb(255,211,32)" stroke-linejoin="round" d="M 8105,4484 L 8195,4664 8285,4484 8105,4484 Z"/>
 <path fill="rgb(255,211,32)" stroke="none" d="M 3527,8031 L 3617,8211 3707,8031 3527,8031 Z"/>
 <path fill="none" stroke="rgb(255,211,32)" stroke-linejoin="round" d="M 3527,8031 L 3617,8211 3707,8031 3527,8031 Z"/>
 <path fill="rgb(255,211,32)" stroke="none" d="M 7656,5463 L 7746,5643 7836,5463 7656,5463 Z"/>
 <path fill="none" stroke="rgb(255,211,32)" stroke-linejoin="round" d="M 7656,5463 L 7746,5643 7836,5463 7656,5463 Z"/>
 <path fill="rgb(255,211,32)" stroke="none" d="M 7696,4619 L 7786,4799 7876,4619 7696,4619 Z"/>
 <path fill="none" stroke="rgb(255,211,32)" stroke-linejoin="round" d="M 7696,4619 L 7786,4799 7876,4619 7696,4619 Z"/>
 <path fill="rgb(255,211,32)" stroke="none" d="M 6967,6057 L 7057,6237 7146,6057 6967,6057 Z"/>
 <path fill="none" stroke="rgb(255,211,32)" stroke-linejoin="round" d="M 6967,6057 L 7057,6237 7146,6057 6967,6057 Z"/>
 <path fill="rgb(255,211,32)" stroke="none" d="M 5781,6907 L 5871,7087 5961,6907 5781,6907 Z"/>
 <path fill="none" stroke="rgb(255,211,32)" stroke-linejoin="round" d="M 5781,6907 L 5871,7087 5961,6907 5781,6907 Z"/>
 <path fill="rgb(255,211,32)" stroke="none" d="M 7603,4736 L 7693,4916 7783,4736 7603,4736 Z"/>
 <path fill="none" stroke="rgb(255,211,32)" stroke-linejoin="round" d="M 7603,4736 L 7693,4916 7783,4736 7603,4736 Z"/>
 <path fill="rgb(255,211,32)" stroke="none" d="M 6960,6243 L 7050,6423 7139,6243 6960,6243 Z"/>
 <path fill="none" stroke="rgb(255,211,32)" stroke-linejoin="round" d="M 6960,6243 L 7050,6423 7139,6243 6960,6243 Z"/>
 <path fill="rgb(255,211,32)" stroke="none" d="M 8012,4761 L 8102,4941 8192,4761 8012,4761 Z"/>
 <path fill="none" stroke="rgb(255,211,32)" stroke-linejoin="round" d="M 8012,4761 L 8102,4941 8192,4761 8012,4761 Z"/>
 <path fill="rgb(87,157,28)" stroke="none" d="M 2044,9437 L 2044,9567 2174,9567 2174,9437 2044,9437 Z"/>
 <path fill="none" stroke="rgb(87,157,28)" stroke-linejoin="round" d="M 2044,9437 L 2044,9567 2174,9567 2174,9437 2044,9437 Z"/>
 <path fill="rgb(87,157,28)" stroke="none" d="M 2493,9117 L 2493,9247 2623,9247 2623,9117 2493,9117 Z"/>
 <path fill="none" stroke="rgb(87,157,28)" stroke-linejoin="round" d="M 2493,9117 L 2493,9247 2623,9247 2623,9117 2493,9117 Z"/>
 <path fill="rgb(87,157,28)" stroke="none" d="M 1784,9763 L 1784,9893 1914,9893 1914,9763 1784,9763 Z"/>
 <path fill="none" stroke="rgb(87,157,28)" stroke-linejoin="round" d="M 1784,9763 L 1784,9893 1914,9893 1914,9763 1784,9763 Z"/>
 <path fill="rgb(87,157,28)" stroke="none" d="M 3614,8226 L 3614,8356 3744,8356 3744,8226 3614,8226 Z"/>
 <path fill="none" stroke="rgb(87,157,28)" stroke-linejoin="round" d="M 3614,8226 L 3614,8356 3744,8356 3744,8226 3614,8226 Z"/>
 <path fill="rgb(87,157,28)" stroke="none" d="M 2914,9084 L 2914,9214 3044,9214 3044,9084 2914,9084 Z"/>
 <path fill="none" stroke="rgb(87,157,28)" stroke-linejoin="round" d="M 2914,9084 L 2914,9214 3044,9214 3044,9084 2914,9084 Z"/>
 <path fill="rgb(87,157,28)" stroke="none" d="M 2713,9097 L 2713,9227 2843,9227 2843,9097 2713,9097 Z"/>
 <path fill="none" stroke="rgb(87,157,28)" stroke-linejoin="round" d="M 2713,9097 L 2713,9227 2843,9227 2843,9097 2713,9097 Z"/>
 <path fill="rgb(87,157,28)" stroke="none" d="M 8551,4108 L 8551,4238 8681,4238 8681,4108 8551,4108 Z"/>
 <path fill="none" stroke="rgb(87,157,28)" stroke-linejoin="round" d="M 8551,4108 L 8551,4238 8681,4238 8681,4108 8551,4108 Z"/>
 <path fill="rgb(87,157,28)" stroke="none" d="M 4694,7513 L 4694,7643 4824,7643 4824,7513 4694,7513 Z"/>
 <path fill="none" stroke="rgb(87,157,28)" stroke-linejoin="round" d="M 4694,7513 L 4694,7643 4824,7643 4824,7513 4694,7513 Z"/>
 <path fill="rgb(87,157,28)" stroke="none" d="M 8282,5561 L 8282,5691 8412,5691 8412,5561 8282,5561 Z"/>
 <path fill="none" stroke="rgb(87,157,28)" stroke-linejoin="round" d="M 8282,5561 L 8282,5691 8412,5691 8412,5561 8282,5561 Z"/>
 <path fill="rgb(87,157,28)" stroke="none" d="M 7675,4359 L 7675,4489 7805,4489 7805,4359 7675,4359 Z"/>
 <path fill="none" stroke="rgb(87,157,28)" stroke-linejoin="round" d="M 7675,4359 L 7675,4489 7805,4489 7805,4359 7675,4359 Z"/>
 <path fill="rgb(87,157,28)" stroke="none" d="M 2614,9329 L 2614,9459 2744,9459 2744,9329 2614,9329 Z"/>
 <path fill="none" stroke="rgb(87,157,28)" stroke-linejoin="round" d="M 2614,9329 L 2614,9459 2744,9459 2744,9329 2614,9329 Z"/>
 <path fill="rgb(87,157,28)" stroke="none" d="M 4769,7810 L 4769,7940 4899,7940 4899,7810 4769,7810 Z"/>
 <path fill="none" stroke="rgb(87,157,28)" stroke-linejoin="round" d="M 4769,7810 L 4769,7940 4899,7940 4899,7810 4769,7810 Z"/>
 <path fill="rgb(87,157,28)" stroke="none" d="M 6608,4963 L 6608,5093 6738,5093 6738,4963 6608,4963 Z"/>
 <path fill="none" stroke="rgb(87,157,28)" stroke-linejoin="round" d="M 6608,4963 L 6608,5093 6738,5093 6738,4963 6608,4963 Z"/>
 <path fill="rgb(87,157,28)" stroke="none" d="M 4196,7199 L 4196,7329 4326,7329 4326,7199 4196,7199 Z"/>
 <path fill="none" stroke="rgb(87,157,28)" stroke-linejoin="round" d="M 4196,7199 L 4196,7329 4326,7329 4326,7199 4196,7199 Z"/>
 <path fill="rgb(87,157,28)" stroke="none" d="M 7303,5852 L 7303,5982 7433,5982 7433,5852 7303,5852 Z"/>
 <path fill="none" stroke="rgb(87,157,28)" stroke-linejoin="round" d="M 7303,5852 L 7303,5982 7433,5982 7433,5852 7303,5852 Z"/>
 <path fill="rgb(42,96,153)" stroke="none" d="M 5087,4624 L 5267,4624 5177,4444 5087,4624 Z"/>
 <path fill="none" stroke="rgb(42,96,153)" stroke-linejoin="round" d="M 5087,4624 L 5267,4624 5177,4444 5087,4624 Z"/>
 <path fill="rgb(42,96,153)" stroke="none" d="M 3802,5654 L 3982,5654 3892,5474 3802,5654 Z"/>
 <path fill="none" stroke="rgb(42,96,153)" stroke-linejoin="round" d="M 3802,5654 L 3982,5654 3892,5474 3802,5654 Z"/>
 <path fill="rgb(42,96,153)" stroke="none" d="M 2570,7288 L 2750,7288 2660,7108 2570,7288 Z"/>
 <path fill="none" stroke="rgb(42,96,153)" stroke-linejoin="round" d="M 2570,7288 L 2750,7288 2660,7108 2570,7288 Z"/>
 <path fill="rgb(42,96,153)" stroke="none" d="M 3276,6391 L 3456,6391 3366,6211 3276,6391 Z"/>
 <path fill="none" stroke="rgb(42,96,153)" stroke-linejoin="round" d="M 3276,6391 L 3456,6391 3366,6211 3276,6391 Z"/>
 <path fill="rgb(42,96,153)" stroke="none" d="M 3471,6765 L 3651,6765 3561,6585 3471,6765 Z"/>
 <path fill="none" stroke="rgb(42,96,153)" stroke-linejoin="round" d="M 3471,6765 L 3651,6765 3561,6585 3471,6765 Z"/>
 <path fill="rgb(42,96,153)" stroke="none" d="M 3707,7183 L 3887,7183 3797,7003 3707,7183 Z"/>
 <path fill="none" stroke="rgb(42,96,153)" stroke-linejoin="round" d="M 3707,7183 L 3887,7183 3797,7003 3707,7183 Z"/>
 <path fill="rgb(42,96,153)" stroke="none" d="M 4035,6648 L 4215,6648 4125,6468 4035,6648 Z"/>
 <path fill="none" stroke="rgb(42,96,153)" stroke-linejoin="round" d="M 4035,6648 L 4215,6648 4125,6468 4035,6648 Z"/>
 <path fill="rgb(42,96,153)" stroke="none" d="M 2146,7624 L 2326,7624 2236,7444 2146,7624 Z"/>
 <path fill="none" stroke="rgb(42,96,153)" stroke-linejoin="round" d="M 2146,7624 L 2326,7624 2236,7444 2146,7624 Z"/>
 <path fill="rgb(42,96,153)" stroke="none" d="M 4484,6504 L 4664,6504 4574,6324 4484,6504 Z"/>
 <path fill="none" stroke="rgb(42,96,153)" stroke-linejoin="round" d="M 4484,6504 L 4664,6504 4574,6324 4484,6504 Z"/>
 <path fill="rgb(42,96,153)" stroke="none" d="M 8353,2378 L 8533,2378 8443,2198 8353,2378 Z"/>
 <path fill="none" stroke="rgb(42,96,153)" stroke-linejoin="round" d="M 8353,2378 L 8533,2378 8443,2198 8353,2378 Z"/>
 <path fill="rgb(42,96,153)" stroke="none" d="M 4152,3938 L 4332,3938 4242,3758 4152,3938 Z"/>
 <path fill="none" stroke="rgb(42,96,153)" stroke-linejoin="round" d="M 4152,3938 L 4332,3938 4242,3758 4152,3938 Z"/>
 <path fill="rgb(42,96,153)" stroke="none" d="M 11888,2063 L 12068,2063 11978,1883 11888,2063 Z"/>
 <path fill="none" stroke="rgb(42,96,153)" stroke-linejoin="round" d="M 11888,2063 L 12068,2063 11978,1883 11888,2063 Z"/>
 <path fill="rgb(42,96,153)" stroke="none" d="M 5691,4316 L 5871,4316 5781,4136 5691,4316 Z"/>
 <path fill="none" stroke="rgb(42,96,153)" stroke-linejoin="round" d="M 5691,4316 L 5871,4316 5781,4136 5691,4316 Z"/>
 <path fill="rgb(42,96,153)" stroke="none" d="M 5750,4171 L 5930,4171 5840,3991 5750,4171 Z"/>
 <path fill="none" stroke="rgb(42,96,153)" stroke-linejoin="round" d="M 5750,4171 L 5930,4171 5840,3991 5750,4171 Z"/>
 <path fill="rgb(42,96,153)" stroke="none" d="M 6555,2802 L 6735,2802 6645,2622 6555,2802 Z"/>
 <path fill="none" stroke="rgb(42,96,153)" stroke-linejoin="round" d="M 6555,2802 L 6735,2802 6645,2622 6555,2802 Z"/>
 <path fill="rgb(0,0,0)" stroke="none" d="M 1563,6107 L 1651,6195 1739,6107 1651,6019 1563,6107 Z"/>
 <path fill="none" stroke="rgb(0,0,0)" stroke-linejoin="round" d="M 1563,6107 L 1651,6195 1739,6107 1651,6019 1563,6107 Z"/>
 <path fill="rgb(0,0,0)" stroke="none" d="M 1839,8909 L 1927,8997 2015,8909 1927,8821 1839,8909 Z"/>
 <path fill="none" stroke="rgb(0,0,0)" stroke-linejoin="round" d="M 1839,8909 L 1927,8997 2015,8909 1927,8821 1839,8909 Z"/>
 <path fill="rgb(0,0,0)" stroke="none" d="M 4058,4529 L 4146,4617 4234,4529 4146,4441 4058,4529 Z"/>
 <path fill="none" stroke="rgb(0,0,0)" stroke-linejoin="round" d="M 4058,4529 L 4146,4617 4234,4529 4146,4441 4058,4529 Z"/>
 <path fill="rgb(0,0,0)" stroke="none" d="M 7822,3085 L 7910,3173 7998,3085 7910,2997 7822,3085 Z"/>
 <path fill="none" stroke="rgb(0,0,0)" stroke-linejoin="round" d="M 7822,3085 L 7910,3173 7998,3085 7910,2997 7822,3085 Z"/>
 <path fill="rgb(0,0,0)" stroke="none" d="M 6260,3713 L 6348,3801 6436,3713 6348,3625 6260,3713 Z"/>
 <path fill="none" stroke="rgb(0,0,0)" stroke-linejoin="round" d="M 6260,3713 L 6348,3801 6436,3713 6348,3625 6260,3713 Z"/>
 <path fill="rgb(0,0,0)" stroke="none" d="M 4309,3758 L 4397,3846 4485,3758 4397,3670 4309,3758 Z"/>
 <path fill="none" stroke="rgb(0,0,0)" stroke-linejoin="round" d="M 4309,3758 L 4397,3846 4485,3758 4397,3670 4309,3758 Z"/>
 <path fill="rgb(0,0,0)" stroke="none" d="M 4161,5731 L 4249,5819 4337,5731 4249,5643 4161,5731 Z"/>
 <path fill="none" stroke="rgb(0,0,0)" stroke-linejoin="round" d="M 4161,5731 L 4249,5819 4337,5731 4249,5643 4161,5731 Z"/>
 <path fill="rgb(0,0,0)" stroke="none" d="M 5139,3622 L 5227,3710 5315,3622 5227,3534 5139,3622 Z"/>
 <path fill="none" stroke="rgb(0,0,0)" stroke-linejoin="round" d="M 5139,3622 L 5227,3710 5315,3622 5227,3534 5139,3622 Z"/>
 <path fill="rgb(0,0,0)" stroke="none" d="M 6588,2807 L 6676,2895 6764,2807 6676,2719 6588,2807 Z"/>
 <path fill="none" stroke="rgb(0,0,0)" stroke-linejoin="round" d="M 6588,2807 L 6676,2895 6764,2807 6676,2719 6588,2807 Z"/>
 <path fill="rgb(0,0,0)" stroke="none" d="M 4795,6354 L 4883,6442 4971,6354 4883,6266 4795,6354 Z"/>
 <path fill="none" stroke="rgb(0,0,0)" stroke-linejoin="round" d="M 4795,6354 L 4883,6442 4971,6354 4883,6266 4795,6354 Z"/>
 <path fill="rgb(0,0,0)" stroke="none" d="M 8797,2343 L 8885,2431 8973,2343 8885,2255 8797,2343 Z"/>
 <path fill="none" stroke="rgb(0,0,0)" stroke-linejoin="round" d="M 8797,2343 L 8885,2431 8973,2343 8885,2255 8797,2343 Z"/>
 <path fill="rgb(0,0,0)" stroke="none" d="M 6798,3545 L 6886,3633 6974,3545 6886,3457 6798,3545 Z"/>
 <path fill="none" stroke="rgb(0,0,0)" stroke-linejoin="round" d="M 6798,3545 L 6886,3633 6974,3545 6886,3457 6798,3545 Z"/>
 <path fill="rgb(0,0,0)" stroke="none" d="M 3371,4726 L 3459,4814 3547,4726 3459,4638 3371,4726 Z"/>
 <path fill="none" stroke="rgb(0,0,0)" stroke-linejoin="round" d="M 3371,4726 L 3459,4814 3547,4726 3459,4638 3371,4726 Z"/>
 <path fill="rgb(0,0,0)" stroke="none" d="M 6569,3586 L 6657,3674 6745,3586 6657,3498 6569,3586 Z"/>
 <path fill="none" stroke="rgb(0,0,0)" stroke-linejoin="round" d="M 6569,3586 L 6657,3674 6745,3586 6657,3498 6569,3586 Z"/>
 <path fill="rgb(0,0,0)" stroke="none" d="M 5504,4015 L 5592,4103 5680,4015 5592,3927 5504,4015 Z"/>
 <path fill="none" stroke="rgb(0,0,0)" stroke-linejoin="round" d="M 5504,4015 L 5592,4103 5680,4015 5592,3927 5504,4015 Z"/>
 <path fill="none" stroke="rgb(255,211,32)" stroke-width="51" stroke-linejoin="round" d="M 3617,8461 L 8195,4792"/>
 <path fill="none" stroke="rgb(87,157,28)" stroke-width="51" stroke-linejoin="round" stroke-dasharray="100,100" d="M 1849,9813 L 8616,4397"/>
 <path fill="none" stroke="rgb(42,96,153)" stroke-width="51" stroke-linejoin="round" d="M 2236,7004 L 11978,613"/>
 <path fill="none" stroke="rgb(0,0,0)" stroke-width="51" stroke-linejoin="round" d="M 1651,6920 L 8885,1979"/>
 <text class="TextShape"><tspan class="TextParagraph" font-family="Arial, sans-serif" font-size="353px" font-weight="400"><tspan class="TextPosition" x="1156" y="10974"><tspan fill="rgb(0,0,0)" stroke="none">0</tspan></tspan></tspan></text>
 <text class="TextShape"><tspan class="TextParagraph" font-family="Arial, sans-serif" font-size="353px" font-weight="400"><tspan class="TextPosition" x="2704" y="10974"><tspan fill="rgb(0,0,0)" stroke="none">5</tspan></tspan></tspan></text>
 <text class="TextShape"><tspan class="TextParagraph" font-family="Arial, sans-serif" font-size="353px" font-weight="400"><tspan class="TextPosition" x="4160" y="10974"><tspan fill="rgb(0,0,0)" stroke="none">10</tspan></tspan></tspan></text>
 <text class="TextShape"><tspan class="TextParagraph" font-family="Arial, sans-serif" font-size="353px" font-weight="400"><tspan class="TextPosition" x="5707" y="10974"><tspan fill="rgb(0,0,0)" stroke="none">15</tspan></tspan></tspan></text>
 <text class="TextShape"><tspan class="TextParagraph" font-family="Arial, sans-serif" font-size="353px" font-weight="400"><tspan class="TextPosition" x="7255" y="10974"><tspan fill="rgb(0,0,0)" stroke="none">20</tspan></tspan></tspan></text>
 <text class="TextShape"><tspan class="TextParagraph" font-family="Arial, sans-serif" font-size="353px" font-weight="400"><tspan class="TextPosition" x="8804" y="10974"><tspan fill="rgb(0,0,0)" stroke="none">25</tspan></tspan></tspan></text>
 <text class="TextShape"><tspan class="TextParagraph" font-family="Arial, sans-serif" font-size="353px" font-weight="400"><tspan class="TextPosition" x="10351" y="10974"><tspan fill="rgb(0,0,0)" stroke="none">30</tspan></tspan></tspan></text>
 <text class="TextShape"><tspan class="TextParagraph" font-family="Arial, sans-serif" font-size="353px" font-weight="400"><tspan class="TextPosition" x="11899" y="10974"><tspan fill="rgb(0,0,0)" stroke="none">35</tspan></tspan></tspan></text>
 <text class="TextShape"><tspan class="TextParagraph" font-family="Arial, sans-serif" font-size="353px" font-weight="400"><tspan class="TextPosition" x="13447" y="10974"><tspan fill="rgb(0,0,0)" stroke="none">40</tspan></tspan></tspan></text>
 <text class="TextShape"><tspan class="TextParagraph" font-family="Arial, sans-serif" font-size="353px" font-weight="400"><tspan class="TextPosition" x="814" y="10527"><tspan fill="rgb(0,0,0)" stroke="none">0</tspan></tspan></tspan></text>
 <text class="TextShape"><tspan class="TextParagraph" font-family="Arial, sans-serif" font-size="353px" font-weight="400"><tspan class="TextPosition" x="629" y="9291"><tspan fill="rgb(0,0,0)" stroke="none">10</tspan></tspan></tspan></text>
 <text class="TextShape"><tspan class="TextParagraph" font-family="Arial, sans-serif" font-size="353px" font-weight="400"><tspan class="TextPosition" x="629" y="8055"><tspan fill="rgb(0,0,0)" stroke="none">20</tspan></tspan></tspan></text>
 <text class="TextShape"><tspan class="TextParagraph" font-family="Arial, sans-serif" font-size="353px" font-weight="400"><tspan class="TextPosition" x="629" y="6820"><tspan fill="rgb(0,0,0)" stroke="none">30</tspan></tspan></tspan></text>
 <text class="TextShape"><tspan class="TextParagraph" font-family="Arial, sans-serif" font-size="353px" font-weight="400"><tspan class="TextPosition" x="629" y="5585"><tspan fill="rgb(0,0,0)" stroke="none">40</tspan></tspan></tspan></text>
 <text class="TextShape"><tspan class="TextParagraph" font-family="Arial, sans-serif" font-size="353px" font-weight="400"><tspan class="TextPosition" x="629" y="4349"><tspan fill="rgb(0,0,0)" stroke="none">50</tspan></tspan></tspan></text>
 <text class="TextShape"><tspan class="TextParagraph" font-family="Arial, sans-serif" font-size="353px" font-weight="400"><tspan class="TextPosition" x="629" y="3114"><tspan fill="rgb(0,0,0)" stroke="none">60</tspan></tspan></tspan></text>
 <text class="TextShape"><tspan class="TextParagraph" font-family="Arial, sans-serif" font-size="353px" font-weight="400"><tspan class="TextPosition" x="629" y="1878"><tspan fill="rgb(0,0,0)" stroke="none">70</tspan></tspan></tspan></text>
 <text class="TextShape"><tspan class="TextParagraph" font-family="Arial, sans-serif" font-size="353px" font-weight="400"><tspan class="TextPosition" x="629" y="643"><tspan fill="rgb(0,0,0)" stroke="none">80</tspan></tspan></tspan></text>
 <path fill="none" stroke="rgb(0,0,0)" stroke-linejoin="round" d="M 11325,10242 L 9145,10242 9145,5994 13505,5994 13505,10242 11325,10242 Z"/>
 <path fill="rgb(0,0,0)" stroke="none" d="M 10213,6321 L 10308,6416 10403,6321 10308,6226 10213,6321 Z"/>
 <path fill="none" stroke="rgb(0,0,0)" stroke-linejoin="round" d="M 10213,6321 L 10308,6416 10403,6321 10308,6226 10213,6321 Z"/>
 <path fill="none" stroke="rgb(0,0,0)" stroke-width="51" stroke-linejoin="round" d="M 9508,6834 L 11108,6834"/>
 <path fill="rgb(42,96,153)" stroke="none" d="M 10213,7442 L 10403,7442 10308,7252 10213,7442 Z"/>
 <path fill="none" stroke="rgb(42,96,153)" stroke-linejoin="round" d="M 10213,7442 L 10403,7442 10308,7252 10213,7442 Z"/>
 <path fill="none" stroke="rgb(42,96,153)" stroke-width="51" stroke-linejoin="round" d="M 9508,7860 L 11108,7860"/>
 <path fill="rgb(87,157,28)" stroke="none" d="M 10213,8278 L 10213,8468 10403,8468 10403,8278 10213,8278 Z"/>
 <path fill="none" stroke="rgb(87,157,28)" stroke-linejoin="round" d="M 10213,8278 L 10213,8468 10403,8468 10403,8278 10213,8278 Z"/>
 <path fill="none" stroke="rgb(87,157,28)" stroke-width="51" stroke-linejoin="round" stroke-dasharray="100,100" d="M 9508,8885 L 11108,8885"/>
 <path fill="rgb(255,211,32)" stroke="none" d="M 10213,9303 L 10308,9493 10403,9303 10213,9303 Z"/>
 <path fill="none" stroke="rgb(255,211,32)" stroke-linejoin="round" d="M 10213,9303 L 10308,9493 10403,9303 10213,9303 Z"/>
 <path fill="none" stroke="rgb(255,211,32)" stroke-width="51" stroke-linejoin="round" d="M 9508,9911 L 11108,9911"/>
 <text class="TextShape"><tspan class="TextParagraph" font-family="Liberation Sans, sans-serif" font-size="318px" font-weight="400"><tspan class="TextPosition" x="11208" y="6427"><tspan fill="rgb(0,0,0)" stroke="none">basic</tspan></tspan></tspan></text>
 <text class="TextShape"><tspan class="TextParagraph" font-family="Liberation Sans, sans-serif" font-size="318px" font-weight="400"><tspan class="TextPosition" x="11208" y="6940"><tspan fill="rgb(0,0,0)" stroke="none">r = 0,8382</tspan></tspan></tspan></text>
 <text class="TextShape"><tspan class="TextParagraph" font-family="Liberation Sans, sans-serif" font-size="318px" font-weight="400"><tspan class="TextPosition" x="11208" y="7453"><tspan fill="rgb(0,0,0)" stroke="none">color</tspan></tspan></tspan></text>
 <text class="TextShape"><tspan class="TextParagraph" font-family="Liberation Sans, sans-serif" font-size="318px" font-weight="400"><tspan class="TextPosition" x="11208" y="7966"><tspan fill="rgb(0,0,0)" stroke="none">r = 0,8009</tspan></tspan></tspan></text>
 <text class="TextShape"><tspan class="TextParagraph" font-family="Liberation Sans, sans-serif" font-size="318px" font-weight="400"><tspan class="TextPosition" x="11208" y="8479"><tspan fill="rgb(0,0,0)" stroke="none">filtered_basic</tspan></tspan></tspan></text>
 <text class="TextShape"><tspan class="TextParagraph" font-family="Liberation Sans, sans-serif" font-size="318px" font-weight="400"><tspan class="TextPosition" x="11208" y="8991"><tspan fill="rgb(0,0,0)" stroke="none">r = 0,9690</tspan></tspan></tspan></text>
 <text class="TextShape"><tspan class="TextParagraph" font-family="Liberation Sans, sans-serif" font-size="318px" font-weight="400"><tspan class="TextPosition" x="11208" y="9504"><tspan fill="rgb(0,0,0)" stroke="none">filtered_color</tspan></tspan></tspan></text>
 <text class="TextShape"><tspan class="TextParagraph" font-family="Liberation Sans, sans-serif" font-size="318px" font-weight="400"><tspan class="TextPosition" x="11208" y="10017"><tspan fill="rgb(0,0,0)" stroke="none">r = 0,9683</tspan></tspan></tspan></text>
 <text class="TextShape"><tspan class="TextParagraph" font-family="Arial, sans-serif" font-size="318px" font-weight="400"><tspan class="TextPosition" x="6786" y="11443"><tspan fill="rgb(0,0,0)" stroke="none">IoU %</tspan></tspan></tspan></text>
 <text class="TextShape" transform="rotate(-90 386 6231)"><tspan class="TextParagraph" font-family="Arial, sans-serif" font-size="318px" font-weight="400"><tspan class="TextPosition" x="386" y="6231"><tspan fill="rgb(0,0,0)" stroke="none">BIoU %</tspan></tspan></tspan></text>
</svg>