<?xml version="1.0" encoding="UTF-8" standalone="no"?>
<!-- Created with Inkscape (http://www.inkscape.org/) -->

<svg
   width="78.316658mm"
   height="67.997925mm"
   viewBox="0 0 78.316658 67.997925"
   version="1.1"
   id="svg5"
   inkscape:export-filename="problem_illustration.svg"
   inkscape:export-xdpi="95.6"
   inkscape:export-ydpi="95.6"
   inkscape:version="1.2.1 (9c6d41e410, 2022-07-14)"
   xmlns:inkscape="http://www.inkscape.org/namespaces/inkscape"
   xmlns:sodipodi="http://sodipodi.sourceforge.net/DTD/sodipodi-0.dtd"
   xmlns="http://www.w3.org/2000/svg"
   xmlns:svg="http://www.w3.org/2000/svg">
  <sodipodi:namedview
     id="namedview7"
     pagecolor="#ffffff"
     bordercolor="#666666"
     borderopacity="1.0"
     inkscape:showpageshadow="2"
     inkscape:pageopacity="0.0"
     inkscape:pagecheckerboard="0"
     inkscape:deskcolor="#d1d1d1"
     inkscape:document-units="mm"
     showgrid="false"
     inkscape:zoom="0.75098906"
     inkscape:cx="300.27069"
     inkscape:cy="349.53905"
     inkscape:window-width="1920"
     inkscape:window-height="1001"
     inkscape:window-x="2391"
     inkscape:window-y="-9"
     inkscape:window-maximized="1"
     inkscape:current-layer="layer1" />
  <defs
     id="defs2">
    <clipPath
       id="clip0-4">
      <rect
         x="881"
         y="342"
         width="296"
         height="257"
         id="rect1262" />
    </clipPath>
  </defs>
  <g
     inkscape:label="Layer 1"
     inkscape:groupmode="layer"
     id="layer1"
     transform="translate(-1.3576737,-1.2323589)">
    <g
       clip-path="url(#clip0-4)"
       transform="matrix(0.26458333,0,0,0.26458333,-231.74024,-89.25514)"
       id="g1311">
      <path
         d="M 901.5,397 926,372.5 950.5,397 926,421.5 Z"
         stroke="#666666"
         stroke-width="3.33333"
         stroke-miterlimit="8"
         fill="none"
         fill-rule="evenodd"
         id="path1267" />
      <path
         d="m 971.076,444.272 -21.66,-23.595 2.456,-2.254 21.66,23.595 z M 945.632,426.413 940.5,408.5 l 17.41,6.642 z"
         fill="#666666"
         id="path1269" />
      <path
         d="m 1003.5,567.5 8,-32 h 109 l -8,32 z"
         stroke="#666666"
         stroke-width="3.33333"
         stroke-miterlimit="8"
         fill="none"
         fill-rule="evenodd"
         id="path1271" />
      <text
         fill="#f0ab00"
         font-family="Arial, Arial_MSFontService, sans-serif"
         font-weight="400"
         font-size="27px"
         transform="translate(1053.92,561)"
         id="text1273">1</text>
      <path
         d="m 965.5,457.5 c 0,-11.046 10.074,-20 22.5,-20 12.43,0 22.5,8.954 22.5,20 0,11.046 -10.07,20 -22.5,20 -12.426,0 -22.5,-8.954 -22.5,-20 z"
         stroke="#666666"
         stroke-width="3.33333"
         stroke-miterlimit="8"
         fill="none"
         fill-rule="evenodd"
         id="path1275" />
      <path
         d="M 1.33415,-0.998914 29.3376,36.4024 26.6693,38.4003 -1.33415,0.998914 Z M 33.6753,31.0726 36.9937,49.4087 20.3338,41.0618 Z"
         fill="#666666"
         transform="matrix(1,0,0,-1,1004.5,442.909)"
         id="path1277" />
      <path
         d="m 1098.5,462 c 0,-11.322 10.07,-20.5 22.5,-20.5 12.43,0 22.5,9.178 22.5,20.5 0,11.322 -10.07,20.5 -22.5,20.5 -12.43,0 -22.5,-9.178 -22.5,-20.5 z"
         stroke="#666666"
         stroke-width="3.33333"
         stroke-miterlimit="8"
         fill="none"
         fill-rule="evenodd"
         id="path1279" />
      <path
         d="m 1119.76,442.838 -21.59,-33.799 2.81,-1.795 21.59,33.8 z m -26.31,-28.806 -1.95,-18.532 15.99,9.561 z"
         fill="#666666"
         id="path1281" />
      <text
         fill="#008fd3"
         font-family="Arial, Arial_MSFontService, sans-serif"
         font-weight="400"
         font-size="27px"
         transform="translate(1007.17,492)"
         id="text1285">3<tspan
   font-size="27px"
   x="131.465"
   y="9"
   id="tspan1283">5</tspan></text>
      <path
         d="m 1041.5,393 24,-24.5 24,24.5 -24,24.5 z"
         stroke="#666666"
         stroke-width="3.33333"
         stroke-miterlimit="8"
         fill="none"
         fill-rule="evenodd"
         id="path1287" />
      <text
         fill="#f0ab00"
         font-family="Arial, Arial_MSFontService, sans-serif"
         font-weight="400"
         font-size="27px"
         transform="translate(980.489,468)"
         id="text1291">2<tspan
   font-size="27px"
   x="132.138"
   y="3"
   id="tspan1289">2</tspan></text>
      <path
         d="m 1029.85,534.94 -31.085,-44.211 2.725,-1.917 31.09,44.211 z m -35.58,-39.013 -2.77,-18.427 16.4,8.84 z"
         fill="#666666"
         id="path1293" />
      <path
         d="M 1.44913,-0.823288 24.1784,39.1842 21.2801,40.8307 -1.44913,0.823288 Z M 29.1516,34.4419 30.1388,53.0496 14.6603,42.6748 Z"
         fill="#666666"
         transform="matrix(1,0,0,-1,1091.5,535.55)"
         id="path1295" />
      <text
         fill="#008fd3"
         font-family="Arial, Arial_MSFontService, sans-serif"
         font-weight="400"
         font-size="27px"
         transform="translate(1072.29,432)"
         id="text1305">2<tspan
   font-size="27px"
   x="-19.5695"
   y="96"
   id="tspan1297">4</tspan><tspan
   font-size="27px"
   x="-144.13"
   y="8"
   id="tspan1299">1</tspan><tspan
   fill="#f0ab00"
   font-size="27px"
   x="-154.853"
   y="-26"
   id="tspan1301">3</tspan><tspan
   fill="#f0ab00"
   font-size="27px"
   x="-15.1807"
   y="-31"
   id="tspan1303">3</tspan></text>
      <path
         d="m 882.898,399.493 c 2.125,-20.511 21.906,-34.852 32.368,-42.022 10.463,-7.171 18.473,-8.338 30.407,-1.001 11.934,7.337 11.117,16.676 41.197,45.024 30.08,28.348 117.21,93.715 139.28,125.065 22.07,31.35 17.82,53.694 -6.86,63.033 -24.69,9.338 -105.12,11.172 -141.248,-7.004 -36.129,-18.176 -60.16,-71.37 -75.527,-102.053 -15.367,-30.683 -21.743,-60.532 -19.617,-81.042 z"
         stroke="#b4ef98"
         stroke-width="3.33333"
         stroke-miterlimit="8"
         stroke-dasharray="10, 3.33333"
         fill="none"
         fill-rule="evenodd"
         id="path1307" />
      <path
         d="m 1044.34,352.509 c -27.09,15.998 -87.951,64.994 -96.312,102.99 -8.36,37.996 19.062,101.99 46.149,124.988 27.093,22.998 89.793,17.498 116.373,12.999 26.59,-4.5 32.61,-16.165 43.14,-39.996 10.54,-23.831 27.26,-70.66 20.07,-102.99 -7.19,-32.331 -41.3,-75.16 -63.21,-90.992 -21.9,-15.832 -39.12,-22.997 -66.21,-6.999 z"
         stroke="#f2bbfa"
         stroke-width="3.33333"
         stroke-miterlimit="8"
         stroke-dasharray="10, 3.33333"
         fill="none"
         fill-rule="evenodd"
         id="path1309" />
    </g>
  </g>
</svg>
